<svg width="62" height="282" viewBox="0 0 62 282" fill="none" xmlns="http://www.w3.org/2000/svg">
<g style="mix-blend-mode:soft-light">
<path d="M2.53039 183.164L1.68243 282H58.4814L56.5298 237.26L55.1838 181.429L53.4879 178.582V171.803C53.4879 170.095 52.3708 150.111 52.3708 148.755C52.1833 146.696 52.5702 144.625 53.4879 142.776C53.9226 141.765 54.0264 140.64 53.7845 139.565C53.5425 138.49 52.9672 137.521 52.142 136.797C51.9953 136.636 51.8852 136.445 51.8191 136.237C51.7531 136.029 51.7329 135.809 51.7598 135.592C51.7866 135.376 51.86 135.167 51.9749 134.982C52.0897 134.797 52.2432 134.639 52.4247 134.519C52.8535 134.071 53.1765 133.531 53.3699 132.939C53.5633 132.348 53.6221 131.72 53.5418 131.103C53.4631 130.595 53.4984 130.075 53.6451 129.582C53.7918 129.09 54.0463 128.636 54.3897 128.256C55.2377 127.117 54.6724 125.965 53.5418 125.11C52.4112 124.256 53.2726 121.979 53.5418 121.124C53.811 120.27 54.955 120.84 55.803 120.555C56.6509 120.27 59.1679 114.576 58.0507 113.153C57.1183 112.042 56.3603 110.793 55.803 109.451C55.5203 108.597 56.9201 104.896 57.1489 103.757C57.3777 102.618 58.2795 100.91 60.8099 98.0492C63.3403 95.1886 61.0925 94.348 60.8099 94.0633C60.5272 93.7786 58.8314 95.2021 59.114 93.4939C59.1732 91.6226 58.7903 89.7639 57.9969 88.0708C57.7142 87.7861 57.1489 87.7861 57.4316 86.9319C57.6062 85.155 57.2943 83.3639 56.5298 81.7529C55.6953 79.4752 50.6346 80.614 49.2213 80.614C47.8081 80.614 43.8375 85.1694 43.6087 86.0371C43.3799 86.9048 42.7607 86.5116 42.4781 86.3218C41.8153 85.0369 41.0643 83.8001 40.2304 82.6206C39.3296 81.8377 38.2746 81.2556 37.1347 80.9123C36.7791 80.8901 36.4358 80.7729 36.1401 80.5728C35.8444 80.3726 35.607 80.0967 35.4523 79.7735C33.6128 78.2589 31.6343 76.9242 29.5436 75.7875L29.8262 70.9474H31.5086C32.4104 70.9474 32.4508 69.2256 32.3566 68.3714C32.0739 68.0867 31.5625 67.5173 31.7913 67.5173C32.0201 67.5173 31.7913 64.9549 31.7913 63.5313C31.7913 62.1078 28.4264 58.6913 27.5785 57.8371C26.7305 56.983 25.0481 57.5524 23.9175 57.5524C22.7869 57.5524 19.7047 61.2537 18.8567 62.1078C18.0088 62.9619 18.3991 65.0498 18.5875 66.0938C18.654 66.3258 18.663 66.5707 18.6137 66.8071C18.5644 67.0434 18.4584 67.264 18.3049 67.4495C17.7396 68.0189 18.0223 69.1578 18.0223 69.7272C18.0223 70.2966 18.951 69.917 19.3682 69.7272C19.5004 70.1009 19.5951 70.4869 19.6508 70.8796C19.698 71.5899 19.4981 72.2946 19.0855 72.8726C18.89 73.0159 18.6544 73.0931 18.4126 73.0931C18.1707 73.0931 17.9351 73.0159 17.7396 72.8726L14.0786 68.3037C13.3383 68.0189 11.8847 67.2326 12.1135 66.3107C12.3962 65.1718 11.2791 55.7763 10.9964 54.6375C10.7138 53.4987 10.7137 54.3528 10.7137 50.3668C10.5786 46.8288 10.2008 43.3045 9.58314 39.8189V33.6095C10.1484 33.7993 11.279 33.9485 11.279 33.0401C11.279 31.9012 13.796 28.4847 14.0786 28.4847C14.3612 28.4847 15.4918 25.6376 14.0786 25.3529C13.6953 25.2638 13.3535 25.0463 13.1089 24.736C12.8644 24.4256 12.7317 24.0408 12.7327 23.6446L14.6978 9.39548H13.4595V8.03971C14.4805 8.20237 15.5206 8.20237 16.5417 8.03971C16.8259 7.90567 17.0757 7.70756 17.2718 7.46071C17.4678 7.21387 17.6049 6.92489 17.6723 6.61615V0H5.86831C6.14646 2.21485 6.59649 4.40434 7.21426 6.54837C7.45558 7.11763 7.84651 7.60981 8.34489 7.97192H11.1579V9.32769H10.5926C10.4042 13.395 10.0273 21.7465 10.0273 22.438C10.0273 23.1294 8.34485 23.5768 7.21426 24.1462C6.08366 24.7157 5.38379 27.1154 5.38379 30.7624C5.20991 34.429 4.64126 38.0657 3.68788 41.6086C3.25192 45.3926 3.06756 49.2018 3.13604 53.0106V58.9895C3.34879 63.6802 3.91118 68.3482 4.81847 72.9539C5.5629 75.6515 6.03638 78.4176 6.23174 81.2106C6.22144 83.3724 6.68084 85.5102 7.57769 87.4742C8.47948 89.5214 8.51986 94.0226 8.42564 96.0156L6.4471 102.293L4.76467 100.585L3.63407 104.57L5.32994 105.425C5.51837 105.804 5.7741 106.672 5.32994 107.133C4.88578 107.594 3.63407 112.448 3.08223 114.82L0 118.779L6.46053 122.765L7.59116 122.195C8.15646 124.907 9.44854 130.683 10.1215 131.605C10.9695 132.743 10.4042 139.292 9.2736 143.278C8.143 147.264 12.3693 162.652 13.2172 164.075C13.9716 165.568 14.2624 167.254 14.0517 168.915C13.8363 169.376 7.77956 172.142 4.7781 173.471V178.894L2.53039 183.164Z" fill="black" fill-opacity="0.35"/>
</g>
</svg>
