<svg width="157" height="118" viewBox="0 0 157 118" fill="none" xmlns="http://www.w3.org/2000/svg">
<path d="M118.082 19.1412C134.6 29.1532 155.736 41.0529 156.68 53.9303C157.624 66.8076 138.409 80.6288 121.891 91.0453C105.373 101.428 91.5518 108.372 72.7415 113.395C53.8974 118.384 30.0642 121.452 15.9059 111.069C1.74759 100.653 -2.73588 76.8195 2.25325 57.9755C7.27608 39.1651 21.7715 25.3439 35.9298 15.332C50.0881 5.32001 63.9094 -0.848969 76.7867 0.0949192C89.664 1.07252 101.564 9.16299 118.082 19.1412Z" fill="#E6286D"/>
<g clip-path="url(#clip0_118_6705)">
<path d="M61.3682 91.1221C60.4619 91.1221 59.5625 90.8691 58.7729 90.3711C57.4067 89.5083 56.5601 88.0293 56.5083 86.4136L56.3506 81.2397C49.8623 75.4219 46.2861 67.2534 46.2861 58.2407C46.2861 49.6387 49.5835 41.728 55.5698 35.9658C61.4937 30.2646 69.561 27.125 78.2861 27.125C87.0112 27.125 95.0786 30.2646 101.002 35.9658C106.989 41.728 110.286 49.6387 110.286 58.2407C110.286 66.8423 106.989 74.7529 101.002 80.5151C95.0786 86.2163 87.0112 89.3564 78.2861 89.3564C75.1406 89.3564 72.0625 88.9497 69.1367 88.1479L63.3286 90.7104C62.6992 90.9863 62.0322 91.1221 61.3682 91.1221ZM78.2861 32.125C62.8936 32.125 51.2861 43.3521 51.2861 58.2407C51.2861 65.8242 54.2808 72.6797 59.7183 77.5439C60.7212 78.4473 61.2969 79.6709 61.3452 80.9951L61.3457 81.0107L61.5 86.0522L67.1626 83.5537C68.1821 83.105 69.332 83.0186 70.4028 83.3105C72.9194 84.0049 75.5693 84.356 78.2861 84.356C93.6787 84.356 105.286 73.1289 105.286 58.2407C105.286 43.3521 93.6787 32.125 78.2861 32.125ZM62.5532 68.4536L71.8965 61.25C72.5278 60.7764 73.397 60.77 74.0342 61.2441L80.9478 66.6182C83.02 68.1646 85.9858 67.6191 87.3672 65.439L96.0571 51.6587C96.8965 50.3433 95.2651 48.8564 94.0205 49.7983L84.6816 56.875C84.0503 57.3491 83.1812 57.355 82.5439 56.8809L75.6304 51.6323C73.5581 50.0859 70.5923 50.6309 69.2109 52.811L60.5166 66.5928C59.6772 67.9082 61.3086 69.3955 62.5532 68.4536Z" fill="white"/>
</g>
<defs>
<clipPath id="clip0_118_6705">
<rect width="64" height="64" fill="white" transform="translate(46.2861 27)"/>
</clipPath>
</defs>
</svg>
