<svg width="157" height="118" viewBox="0 0 157 118" fill="none" xmlns="http://www.w3.org/2000/svg">
<path d="M118.082 19.1412C134.6 29.1532 155.736 41.0529 156.68 53.9303C157.624 66.8076 138.409 80.6288 121.891 91.0453C105.373 101.428 91.5518 108.372 72.7415 113.395C53.8974 118.384 30.0642 121.452 15.9059 111.069C1.74759 100.653 -2.73588 76.8195 2.25325 57.9755C7.27608 39.1651 21.7715 25.3439 35.9298 15.332C50.0881 5.32001 63.9094 -0.848969 76.7867 0.0949192C89.664 1.07252 101.564 9.16299 118.082 19.1412Z" fill="#6DD5D5"/>
<g clip-path="url(#clip0_118_6704)">
<path d="M78.254 27.0002C60.7821 27.0002 46.5421 41.2401 46.5421 58.7121C46.5421 64.312 48.0141 69.752 50.7661 74.552L46.2861 91L63.0861 86.584C67.7261 89.112 72.9421 90.456 78.254 90.456C95.726 90.456 109.966 76.216 109.966 58.7441C109.966 50.2641 106.67 42.2961 100.686 36.3121C97.7522 33.3487 94.2578 30.9991 90.4064 29.4003C86.5551 27.8015 82.424 26.9856 78.254 27.0002ZM78.286 32.3441C85.326 32.3441 91.918 35.0961 96.91 40.0881C99.3599 42.5372 101.302 45.4459 102.626 48.6473C103.949 51.8487 104.627 55.2799 104.622 58.7441C104.622 73.272 92.782 85.08 78.254 85.08C73.5181 85.08 68.8781 83.832 64.8461 81.4L63.8861 80.856L53.9021 83.48L56.5581 73.752L55.9181 72.728C53.2747 68.5318 51.8766 63.6715 51.8861 58.7121C51.9181 44.1841 63.7261 32.3441 78.286 32.3441ZM67.0221 44.0561C66.5101 44.0561 65.6461 44.2481 64.9101 45.0481C64.2061 45.8481 62.1261 47.8001 62.1261 51.6721C62.1261 55.5761 64.9741 59.3201 65.3261 59.8641C65.7741 60.4081 70.9581 68.408 78.926 71.8C80.814 72.664 82.286 73.144 83.438 73.496C85.326 74.104 87.054 74.008 88.43 73.816C89.966 73.592 93.102 71.896 93.774 70.04C94.446 68.184 94.446 66.616 94.254 66.264C94.03 65.944 93.518 65.752 92.718 65.4C91.918 64.952 88.014 63.0321 87.31 62.7761C86.574 62.5201 86.126 62.3921 85.518 63.1601C85.006 63.96 83.47 65.752 83.022 66.264C82.542 66.808 82.094 66.872 81.326 66.488C80.494 66.072 77.934 65.24 74.926 62.5521C72.5581 60.4401 70.9901 57.8481 70.5101 57.0481C70.1261 56.2801 70.4781 55.8001 70.8621 55.4481C71.2141 55.0961 71.7261 54.5201 72.0461 54.0401C72.4621 53.5921 72.5901 53.2401 72.8461 52.7281C73.1021 52.1841 72.9741 51.7361 72.7821 51.3521C72.5901 51.0001 70.9901 47.0321 70.3181 45.4641C69.6781 43.9281 69.0381 44.1201 68.5261 44.0881C68.0781 44.0881 67.5661 44.0561 67.0221 44.0561Z" fill="white"/>
</g>
<defs>
<clipPath id="clip0_118_6704">
<rect width="64" height="64" fill="white" transform="translate(46.2861 27)"/>
</clipPath>
</defs>
</svg>
