<svg width="362" height="294" viewBox="0 0 362 294" fill="none" xmlns="http://www.w3.org/2000/svg">
<g clip-path="url(#clip0_127_991)">
<path d="M279.372 40.4702C314.296 61.6385 358.985 86.7981 360.98 114.025C362.976 141.251 322.35 170.473 287.426 192.497C252.502 214.449 223.28 229.131 183.509 239.751C143.667 250.3 93.277 256.786 63.3421 234.833C33.4072 212.81 23.9278 162.419 34.4763 122.577C45.0961 82.8067 75.7437 53.5846 105.679 32.4163C135.613 11.2481 164.836 -1.79497 192.062 0.200687C219.289 2.26762 244.448 19.3733 279.372 40.4702Z" fill="#F1F1FB"/>
<path d="M307.078 100.047C305.424 98.6589 302.536 97.737 299.241 97.737C298.743 97.737 298.255 97.766 297.776 97.8045C297.776 97.782 297.776 97.7595 297.776 97.737C297.775 96.2862 297.373 94.8638 296.612 93.6282C295.852 92.3926 294.764 91.392 293.468 90.7379C292.81 90.4006 292.258 89.8853 291.877 89.2506C291.496 88.6158 291.301 87.887 291.313 87.1468V87.1179C291.312 83.9338 290.047 80.8803 287.796 78.6288C285.544 76.3772 282.491 75.112 279.306 75.1111C279.094 75.1111 278.889 75.1336 278.683 75.1432C278.683 75.0308 278.683 74.9184 278.683 74.822C278.686 71.1286 277.361 67.5573 274.949 64.7601C272.537 61.9629 269.199 60.1265 265.546 59.5861C261.892 59.0458 258.166 59.8375 255.047 61.8167C251.929 63.7959 249.627 66.8307 248.56 70.3669C248.291 71.2736 247.702 72.0516 246.902 72.5558C246.101 73.0599 245.145 73.2557 244.211 73.1068C242.654 72.8619 241.062 72.9572 239.545 73.3861C238.027 73.8149 236.621 74.5671 235.422 75.5911C234.223 76.615 233.261 77.8864 232.6 79.3178C231.939 80.7492 231.596 82.3067 231.594 83.8833C231.594 84.1563 231.613 84.4229 231.636 84.6928C231.366 84.6703 231.096 84.651 230.823 84.651C228.333 84.651 225.945 85.6402 224.184 87.401C222.423 89.1617 221.434 91.5498 221.434 94.0399C221.434 94.1524 221.434 94.2584 221.434 94.3611C220.224 93.4983 218.73 93.1302 217.257 93.332C215.784 93.5338 214.444 94.2902 213.51 95.4468C213.119 95.9493 212.613 96.3515 212.036 96.6202C211.458 96.8888 210.825 97.0162 210.189 96.9918C209.842 96.9726 209.488 96.9661 209.129 96.9661C204.812 96.9661 201.099 98.2317 199.509 100.043L307.078 100.047Z" fill="white"/>
<path d="M306.115 99.372C304.415 98.3731 301.984 97.7371 299.26 97.7371C298.762 97.7371 298.274 97.766 297.795 97.8045C297.795 97.782 297.795 97.7595 297.795 97.7371C297.795 96.2862 297.392 94.8638 296.632 93.6282C295.871 92.3926 294.783 91.3921 293.488 90.7379C292.829 90.4006 292.278 89.8853 291.897 89.2506C291.516 88.6158 291.32 87.887 291.333 87.1468V87.1179C291.333 84.2458 290.3 81.4694 288.422 79.2965C288.307 79.2965 288.194 79.2804 288.079 79.2804C287.867 79.2804 287.661 79.3029 287.456 79.3125C287.456 79.2001 287.456 79.0877 287.456 78.9721C287.456 78.7376 287.433 78.5095 287.42 78.2782C285.214 76.2418 282.322 75.111 279.319 75.1111C279.107 75.1111 278.902 75.1336 278.696 75.1432C278.696 75.0308 278.696 74.9184 278.696 74.822C278.698 72.7484 278.279 70.6961 277.465 68.7891C276.65 66.8821 275.457 65.1602 273.958 63.7275C270.354 63.257 266.7 64.0863 263.652 66.0666C260.604 68.0469 258.361 71.0485 257.326 74.533C257.058 75.4401 256.468 76.2185 255.668 76.7227C254.868 77.227 253.911 77.4225 252.977 77.2729C251.418 77.0269 249.825 77.1216 248.306 77.5505C246.787 77.9795 245.38 78.7324 244.18 79.7575C242.98 80.7826 242.017 82.0555 241.356 83.4887C240.696 84.9218 240.354 86.481 240.353 88.059C240.353 88.3321 240.373 88.6019 240.392 88.8717C240.125 88.846 239.856 88.8299 239.583 88.8299C237.092 88.8299 234.704 89.8191 232.944 91.5799C231.183 93.3407 230.194 95.7288 230.194 98.2189C230.194 98.3281 230.194 98.4373 230.21 98.5401C228.999 97.6742 227.504 97.304 226.029 97.5053C224.555 97.7065 223.213 98.464 222.279 99.6226C222.154 99.7744 222.02 99.9181 221.878 100.053H306.294C306.24 99.8185 306.176 99.5936 306.115 99.372Z" fill="url(#paint0_linear_127_991)"/>
<path d="M324.533 100.047C322.641 101.039 319.335 101.698 315.564 101.698C314.993 101.698 314.437 101.678 313.888 101.649C313.888 101.665 313.888 101.682 313.888 101.698C313.888 103.885 311.883 105.774 308.96 106.699C307.409 107.187 306.487 108.18 306.494 109.268V109.291C306.494 114.029 300.342 117.87 292.759 117.87C292.518 117.87 292.28 117.854 292.042 117.848C292.042 117.928 292.042 118.009 292.042 118.089C292.042 124.166 284.16 129.09 274.434 129.09C266.481 129.09 259.764 125.798 257.58 121.275C256.937 119.929 254.824 119.097 252.601 119.316C251.959 119.377 251.316 119.409 250.674 119.409C243.768 119.409 238.169 115.914 238.169 111.6C238.174 111.406 238.19 111.212 238.217 111.019C237.896 111.038 237.604 111.051 237.289 111.051C231.356 111.051 226.548 108.045 226.548 104.341C226.548 104.261 226.564 104.184 226.567 104.103C225.339 104.636 224.013 104.904 222.674 104.89C220.57 104.89 218.698 104.283 217.474 103.336C216.369 102.547 215.029 102.158 213.674 102.231C213.276 102.244 212.871 102.25 212.46 102.25C207.523 102.25 203.286 101.344 201.452 100.05L324.533 100.047Z" fill="white"/>
<path d="M323.408 100.528C321.462 101.241 318.68 101.698 315.565 101.698C314.993 101.698 314.437 101.678 313.888 101.649C313.888 101.665 313.888 101.682 313.888 101.698C313.888 103.885 311.883 105.774 308.96 106.699C307.409 107.187 306.487 108.18 306.494 109.268V109.291C306.494 111.427 305.234 113.377 303.166 114.88C303.034 114.88 302.906 114.88 302.771 114.88C302.53 114.88 302.295 114.88 302.058 114.857C302.058 114.941 302.058 115.021 302.058 115.102C302.058 115.269 302.029 115.423 302.019 115.599C299.575 117 296.324 117.848 292.749 117.848C292.508 117.848 292.27 117.832 292.033 117.825C292.033 117.906 292.033 117.986 292.033 118.066C292.033 121.185 289.948 123.996 286.611 125.997C285.898 126.052 285.175 126.09 284.439 126.09C276.486 126.09 269.77 122.795 267.582 118.272C266.94 116.929 264.826 116.094 262.607 116.313C261.966 116.377 261.323 116.409 260.68 116.409C253.774 116.409 248.175 112.911 248.175 108.597C248.18 108.404 248.196 108.211 248.223 108.019C247.902 108.035 247.606 108.048 247.295 108.048C241.362 108.048 236.554 105.045 236.554 101.338C236.554 101.261 236.554 101.184 236.573 101.103C235.344 101.633 234.018 101.9 232.68 101.887C230.576 101.887 228.703 101.283 227.476 100.332C227.33 100.221 227.176 100.119 227.017 100.027H323.633C323.57 100.199 323.495 100.367 323.408 100.528Z" fill="url(#paint1_linear_127_991)"/>
<path d="M294.075 101.168C293.06 100.316 291.284 99.7479 289.257 99.7479C288.936 99.7479 288.65 99.7639 288.355 99.7896C288.355 99.7896 288.355 99.7639 288.355 99.7479C288.355 98.8569 288.109 97.9833 287.643 97.224C287.177 96.4647 286.509 95.8496 285.714 95.4469C285.31 95.2389 284.971 94.9222 284.737 94.5323C284.503 94.1425 284.382 93.695 284.388 93.2402V93.2241C284.388 91.2647 283.609 89.3856 282.224 88.0001C280.838 86.6147 278.959 85.8363 277 85.8363C276.868 85.8363 276.743 85.8363 276.615 85.8556C276.615 85.7849 276.615 85.7175 276.615 85.6468C276.6 83.3885 275.777 81.2101 274.296 79.5055C272.815 77.801 270.772 76.6828 268.538 76.3533C266.304 76.0239 264.026 76.5048 262.115 77.7092C260.205 78.9136 258.789 80.7619 258.123 82.9197C257.957 83.4766 257.594 83.9543 257.103 84.2639C256.611 84.5735 256.024 84.694 255.45 84.6029C255.103 84.5492 254.751 84.5235 254.4 84.5258C252.619 84.5258 250.911 85.233 249.652 86.4918C248.392 87.7507 247.684 89.4583 247.683 91.239C247.683 91.4061 247.683 91.5602 247.709 91.7369C247.545 91.7369 247.388 91.7112 247.211 91.7112C245.678 91.7112 244.207 92.3204 243.123 93.4046C242.038 94.4889 241.429 95.9595 241.429 97.493C241.429 97.5604 241.429 97.6247 241.429 97.6921C240.689 97.1633 239.775 96.9358 238.874 97.0557C237.972 97.1756 237.149 97.6339 236.573 98.3377C236.335 98.6498 236.025 98.9001 235.67 99.0678C235.315 99.2355 234.925 99.3156 234.533 99.3014C234.321 99.3014 234.103 99.2853 233.891 99.2853C231.241 99.2853 228.963 100.066 227.98 101.177L294.075 101.168Z" fill="white"/>
<path d="M294.076 101.168C293.814 100.953 293.53 100.768 293.228 100.615H293.163C293.163 100.615 293.163 100.589 293.163 100.577C291.942 100.006 290.606 99.7213 289.258 99.7446C288.936 99.7446 288.65 99.7607 288.355 99.7863C288.355 99.7863 288.355 99.7607 288.355 99.7446C288.355 98.8542 288.108 97.9812 287.642 97.2226C287.176 96.4639 286.509 95.8493 285.715 95.4468C285.31 95.2388 284.972 94.9221 284.737 94.5323C284.503 94.1424 284.382 93.6949 284.388 93.2401V93.224C284.388 91.2647 283.61 89.3856 282.224 88.0001C280.839 86.6146 278.96 85.8363 277 85.8363C276.868 85.8363 276.743 85.8363 276.615 85.8555C276.615 85.7849 276.615 85.7174 276.615 85.6467C276.614 83.8385 276.096 82.0682 275.121 80.5455C274.146 79.0227 272.755 77.8112 271.112 77.0544C269.235 77.2239 267.451 77.9504 265.989 79.1408C264.528 80.3313 263.455 81.9313 262.909 83.7356C262.743 84.2933 262.38 84.7717 261.888 85.082C261.396 85.3922 260.808 85.513 260.233 85.4219C259.889 85.3663 259.541 85.3384 259.192 85.3384C257.411 85.3384 255.703 86.046 254.443 87.3056C253.184 88.5652 252.476 90.2735 252.476 92.0549C252.476 92.2219 252.476 92.3761 252.502 92.5527C252.338 92.5527 252.18 92.527 252.004 92.527C250.47 92.527 249 93.1362 247.915 94.2205C246.831 95.3048 246.222 96.7754 246.222 98.3088C246.222 98.3795 246.222 98.4437 246.222 98.5112C245.478 97.9756 244.556 97.7457 243.647 97.8687C242.739 97.9918 241.912 98.4585 241.336 99.1728C241.098 99.4849 240.789 99.7352 240.434 99.9029C240.079 100.071 239.689 100.151 239.297 100.136C239.082 100.136 238.866 100.12 238.654 100.12C236.727 100.12 235.005 100.532 233.836 101.184L294.076 101.168Z" fill="url(#paint2_linear_127_991)"/>
<g opacity="0.5">
<path d="M230.466 52.8327C229.157 51.7371 226.87 51.0067 224.265 51.0067C223.866 51.0067 223.48 51.0067 223.101 51.0618C223.101 51.0618 223.101 51.0274 223.101 51.0067C223.096 49.8627 222.775 48.7423 222.173 47.7695C221.571 46.7967 220.712 46.0093 219.69 45.4945C219.169 45.2278 218.734 44.8204 218.433 44.3186C218.132 43.8168 217.978 43.2407 217.988 42.6557C217.988 40.1357 216.987 37.7189 215.205 35.937C213.423 34.1551 211.006 33.154 208.486 33.154C208.321 33.154 208.156 33.154 207.99 33.154C207.99 33.0644 207.99 32.9748 207.99 32.8853C208 29.9602 206.956 27.1294 205.049 24.9109C203.143 22.6924 200.501 21.2344 197.608 20.8036C194.715 20.3729 191.763 20.9981 189.293 22.5651C186.823 24.132 185 26.5358 184.157 29.3368C183.945 30.0558 183.478 30.6729 182.844 31.0725C182.21 31.4721 181.452 31.6266 180.712 31.5072C179.478 31.3144 178.218 31.3907 177.017 31.7309C175.815 32.0711 174.702 32.6672 173.753 33.4781C172.804 34.2891 172.041 35.2959 171.518 36.4293C170.995 37.5627 170.723 38.7959 170.721 40.0443C170.721 40.2648 170.721 40.4784 170.755 40.6851C170.542 40.6851 170.328 40.6851 170.114 40.6851C168.144 40.6851 166.255 41.4676 164.862 42.8606C163.469 44.2536 162.687 46.1428 162.687 48.1128C162.687 48.2024 162.687 48.2851 162.687 48.3746C161.921 47.8042 160.995 47.4885 160.041 47.472C159.351 47.472 158.669 47.6268 158.047 47.9249C157.424 48.223 156.877 48.6569 156.444 49.1946C156.136 49.5888 155.74 49.9053 155.288 50.1183C154.836 50.3314 154.339 50.4351 153.84 50.421C153.564 50.421 153.281 50.421 152.999 50.421C149.554 50.421 146.653 51.4201 145.385 52.8533L230.466 52.8327Z" fill="white"/>
<path d="M229.688 52.3021C228.023 51.4087 226.154 50.9624 224.265 51.0067C223.866 51.0067 223.48 51.0067 223.101 51.0618C223.101 51.0618 223.101 51.0274 223.101 51.0067C223.096 49.8627 222.775 48.7423 222.173 47.7695C221.571 46.7966 220.712 46.0093 219.69 45.4945C219.169 45.2278 218.734 44.8204 218.433 44.3186C218.132 43.8168 217.978 43.2407 217.988 42.6557C217.992 40.379 217.175 38.1773 215.687 36.4544H215.411C215.246 36.4544 215.08 36.4544 214.915 36.4544C214.915 36.3649 214.915 36.2753 214.915 36.1857C214.915 36.0961 214.915 35.8205 214.915 35.6345C213.17 34.0245 210.882 33.1314 208.507 33.1333C208.342 33.1333 208.176 33.1333 208.011 33.1333C208.011 33.0437 208.011 32.9542 208.011 32.8646C208.013 31.2239 207.682 29.5999 207.037 28.0909C206.393 26.582 205.449 25.2197 204.263 24.0864C203.765 24.0206 203.263 23.9861 202.761 23.983C200.146 23.9834 197.601 24.825 195.501 26.3835C193.402 27.9419 191.859 30.1345 191.102 32.6372C190.892 33.3566 190.425 33.974 189.79 34.3726C189.155 34.7713 188.397 34.9236 187.657 34.8008C186.423 34.6078 185.162 34.6843 183.96 35.0249C182.759 35.3655 181.645 35.9622 180.696 36.7739C179.747 37.5857 178.984 38.5933 178.461 39.7275C177.938 40.8617 177.667 42.0957 177.666 43.3447C177.666 43.5583 177.666 43.7719 177.701 43.9855C177.487 43.9855 177.273 43.9855 177.06 43.9855C175.09 43.9855 173.201 44.7681 171.808 46.161C170.415 47.554 169.632 49.4433 169.632 51.4132C169.632 51.5028 169.632 51.5855 169.632 51.6751C168.673 50.9859 167.487 50.6904 166.317 50.8493C165.146 51.0082 164.082 51.6095 163.341 52.5295C163.243 52.6486 163.137 52.7613 163.024 52.8671H229.839C229.801 52.6758 229.75 52.4871 229.688 52.3021Z" fill="url(#paint3_linear_127_991)"/>
</g>
<g opacity="0.49">
<path d="M166.159 89.7994C164.715 88.5898 162.196 87.7866 159.324 87.7866C158.889 87.7866 158.464 87.8085 158.046 87.846C158.046 87.8241 158.046 87.8053 158.046 87.7866C158.046 86.5217 157.696 85.2815 157.034 84.2038C156.372 83.1262 155.424 82.2534 154.295 81.6825C153.722 81.388 153.243 80.9393 152.912 80.387C152.581 79.8348 152.41 79.201 152.42 78.557V78.5477C152.42 75.7716 151.317 73.1092 149.354 71.1462C147.391 69.1832 144.729 68.0804 141.952 68.0804C141.768 68.0804 141.59 68.0804 141.409 68.1054C141.409 68.0086 141.409 67.9085 141.409 67.8116C141.398 64.6 140.237 61.4984 138.135 59.0702C136.033 56.6419 133.13 55.048 129.952 54.5779C126.775 54.1078 123.535 54.7926 120.82 56.5079C118.105 58.2233 116.094 60.8556 115.155 63.9267C114.918 64.7186 114.401 65.3971 113.7 65.835C113 66.2729 112.163 66.4401 111.348 66.3052C109.987 66.0909 108.595 66.1744 107.269 66.55C105.944 66.9256 104.715 67.5844 103.669 68.4808C102.622 69.3772 101.783 70.49 101.208 71.7423C100.633 72.9947 100.337 74.3568 100.34 75.7347C100.34 75.9723 100.359 76.2067 100.377 76.4411C100.143 76.4223 99.9085 76.4067 99.671 76.4067C97.4997 76.4067 95.4173 77.269 93.8817 78.804C92.3461 80.3391 91.483 82.4211 91.4822 84.5923C91.4822 84.6892 91.4822 84.783 91.4978 84.8799C90.4425 84.1189 89.1355 83.792 87.8462 83.9664C86.5569 84.1409 85.3837 84.8035 84.5687 85.8175C84.2281 86.2569 83.7875 86.6084 83.2835 86.8427C82.7795 87.077 82.2267 87.1874 81.6713 87.1646C81.3588 87.1646 81.0462 87.1427 80.7337 87.1427C76.9831 87.1427 73.742 88.2492 72.348 89.8275L166.159 89.7994Z" fill="white"/>
<path d="M165.303 89.2243C163.818 88.3523 161.699 87.7991 159.324 87.7991C158.889 87.7991 158.464 87.821 158.046 87.8585C158.046 87.8366 158.046 87.8178 158.046 87.7991C158.046 86.5343 157.696 85.294 157.034 84.2163C156.372 83.1387 155.424 82.2659 154.295 81.695C153.722 81.4005 153.243 80.9518 152.912 80.3995C152.581 79.8473 152.41 79.2135 152.42 78.5695V78.5477C152.42 76.0439 151.521 73.6233 149.885 71.7279C149.782 71.7279 149.685 71.7279 149.572 71.7279C149.388 71.7279 149.207 71.7466 149.025 71.756C149.025 71.6591 149.025 71.5591 149.025 71.4622C149.025 71.2559 149.004 71.0559 148.994 70.8527C147.069 69.0797 144.548 68.0956 141.931 68.0961C141.746 68.0961 141.568 68.0961 141.384 68.1211C141.384 68.0242 141.384 67.9242 141.384 67.8273C141.393 66.0177 141.036 64.225 140.332 62.5579C139.628 60.8907 138.593 59.384 137.289 58.1289C136.741 58.0565 136.189 58.0189 135.636 58.0164C132.755 58.0165 129.95 58.9437 127.637 60.661C125.323 62.3783 123.624 64.7945 122.79 67.5522C122.556 68.3434 122.042 69.0222 121.343 69.4617C120.645 69.9012 119.81 70.0713 118.996 69.9401C117.636 69.726 116.246 69.8092 114.921 70.1839C113.597 70.5586 112.369 71.216 111.323 72.1107C110.277 73.0054 109.437 74.1162 108.861 75.3666C108.285 76.6171 107.987 77.9774 107.988 79.354C107.988 79.5916 108.007 79.826 108.025 80.0604C107.791 80.0416 107.557 80.026 107.319 80.026C106.244 80.0256 105.179 80.237 104.186 80.6482C103.192 81.0594 102.289 81.6623 101.529 82.4224C100.768 83.1826 100.165 84.0851 99.7537 85.0784C99.3421 86.0718 99.1303 87.1364 99.1303 88.2117C99.1303 88.3085 99.1303 88.4023 99.1459 88.4992C98.0906 87.7382 96.7835 87.4113 95.4943 87.5857C94.205 87.7602 93.0318 88.4228 92.2167 89.4368C92.1071 89.5693 91.9892 89.6946 91.8635 89.8119H165.472C165.419 89.6119 165.369 89.4181 165.303 89.2243Z" fill="url(#paint4_linear_127_991)"/>
</g>
<path d="M245.966 109.18C245.857 110.942 245.748 113.806 245.311 115.018C244.983 116.119 243.564 118.212 243.018 118.433C242.472 118.653 241.271 120.195 241.162 120.746C241.052 121.297 235.92 128.346 235.811 128.346C235.702 128.346 233.627 130.77 233.19 131.21C232.644 131.761 230.679 132.863 230.133 133.193C229.587 133.524 228.495 134.846 227.84 135.286C227.185 135.837 224.236 139.362 223.035 140.243C222.162 140.904 221.288 141.455 221.07 141.675C221.288 143.768 221.725 148.284 221.397 149.826C221.07 151.809 220.524 153.462 220.524 153.682C220.524 153.902 219.978 159.52 220.196 160.622C220.306 161.723 220.196 165.578 219.978 166.019C219.76 166.46 219.869 168.002 219.978 168.663C220.087 172.188 220.196 179.458 219.978 180.119C219.76 180.67 219.76 182.652 219.76 183.534V190.804C219.76 191.465 219.541 191.905 219.76 193.337C219.978 194.439 219.869 197.633 219.76 199.175C219.869 201.158 220.196 205.234 220.415 206.115C220.633 207.217 220.524 216.249 220.742 218.012C220.961 219.444 221.288 223.079 221.397 224.731C219.869 224.731 216.702 224.731 216.484 225.282C216.265 225.943 216.702 227.375 216.484 227.926C216.265 228.476 214.518 231.451 212.88 232.332C211.57 232.993 210.806 233.433 210.587 233.543C210.478 233.764 210.369 234.425 210.915 234.755C211.679 235.306 211.679 235.636 212.771 235.636C213.863 235.636 215.392 235.857 216.156 236.738C216.921 237.619 216.921 238.17 217.794 238.5C218.668 238.831 220.851 239.492 221.07 239.712C221.507 239.932 221.834 240.043 222.053 240.043H183.507L188.203 238.941C188.421 235.857 188.639 229.468 188.421 228.807C188.203 227.926 187.875 227.815 187.766 227.044C187.657 226.273 188.312 225.172 187.984 225.062C187.766 224.951 187.438 223.409 187.766 222.969C187.984 222.418 188.312 218.452 187.984 217.902C187.766 217.351 187.657 213.385 187.438 212.504C187.329 211.623 187.22 210.411 187.22 209.75C187.22 209.089 187.438 205.124 187.22 204.683C187.001 204.353 187.22 202.921 187.438 202.7C187.657 202.48 187.438 201.819 187.438 201.599C187.438 201.379 189.076 200.387 188.967 200.057C188.858 199.836 189.076 199.286 188.749 199.286C188.421 199.286 187.657 196.532 187.875 195.651C188.093 194.769 188.967 193.668 188.967 193.007C188.967 192.346 188.639 190.363 188.203 189.812C187.875 189.262 187.329 188.821 187.547 188.38C187.766 188.05 188.203 187.609 188.203 186.618C188.203 185.626 188.093 183.864 187.984 183.423C187.875 183.093 187.766 181.551 187.984 180.449C188.203 179.348 188.093 177.916 187.984 177.695C187.875 177.475 187.329 175.602 187.329 174.942C187.329 174.281 186.674 172.078 187.329 171.086C187.984 170.095 188.858 169.103 188.967 168.112C189.076 167.121 189.95 164.477 190.168 163.816C190.386 163.155 190.386 162.825 190.386 162.384V159.63C190.386 158.639 190.605 158.969 190.168 158.198C189.622 157.427 189.076 156.546 189.404 155.885C189.731 155.224 189.731 155.114 189.731 154.673C189.731 154.122 190.059 153.682 189.731 153.021C189.404 152.47 189.076 152.47 188.967 152.47C188.203 154.783 186.565 159.41 186.456 159.74C186.346 160.291 186.237 164.918 185.691 165.909C185.145 166.9 184.162 169.764 184.053 169.985C183.944 170.095 183.616 170.646 183.398 170.976L183.289 171.527C184.053 171.747 185.473 172.298 184.927 173.179C184.381 174.06 183.835 174.391 183.726 174.391C183.616 174.611 183.398 175.162 183.726 175.272C184.053 175.382 184.818 176.814 184.708 178.246C184.599 179.788 184.381 182.432 184.381 183.754C184.381 185.186 184.381 189.151 184.272 189.592C184.162 189.923 183.944 190.363 183.944 190.583C183.944 190.804 184.162 191.685 183.944 192.126C183.726 192.456 182.743 192.897 182.306 192.456C181.979 192.126 181.869 191.575 181.76 191.354C181.76 190.914 181.651 189.923 181.542 189.812C181.433 189.702 180.996 188.821 181.214 187.499C181.323 186.508 181.214 185.737 181.214 185.516C180.996 185.076 180.45 184.305 180.231 184.305C180.013 184.305 178.594 185.516 178.266 185.516C177.938 185.516 177.502 185.516 177.174 184.855C176.846 184.305 175.973 183.313 175.536 182.873C175.209 182.652 174.663 182.212 174.772 181.441C174.881 180.559 176.191 178.577 176.41 177.806C176.628 177.034 177.174 176.594 177.174 176.043C177.174 175.492 177.502 164.807 177.502 164.257C177.502 163.706 177.611 161.833 177.829 160.952C178.048 160.071 178.375 159.41 178.812 158.418C179.358 157.427 180.668 155.114 180.996 153.902C181.214 152.69 181.869 150.267 182.197 149.496C182.525 148.725 182.525 146.081 182.961 145.2C183.289 144.319 183.835 140.023 186.019 138.921C188.203 137.82 191.042 137.269 191.26 137.269C191.478 137.269 196.283 134.515 196.501 133.634C196.72 132.973 196.61 132.092 196.501 131.761C195.409 131.321 193.335 130.329 193.335 129.999C193.335 129.668 193.99 128.897 194.099 128.236C194.208 127.575 194.317 127.465 194.099 126.694C193.881 125.923 193.444 121.627 194.863 119.534C195.955 117.772 198.03 116.45 199.013 116.009C199.996 115.789 202.07 115.569 202.507 115.789C203.162 116.009 205.892 118.543 206.11 119.094C206.329 119.644 207.311 120.746 207.53 122.729C207.639 124.711 207.53 127.906 207.857 128.677C208.185 129.228 208.513 130.99 208.731 131.871C208.731 132.092 208.731 132.532 208.403 132.532H206.11C206.11 132.753 206.11 133.193 206.329 133.193C206.656 133.193 207.53 133.414 207.967 133.303C208.294 133.193 210.806 132.312 211.024 132.312C211.242 132.312 212.444 131.761 212.662 131.541C212.88 131.321 216.047 130.99 216.593 131.321C217.03 131.541 217.248 132.202 217.357 132.532C219.214 131.321 222.926 128.897 223.254 128.787C223.581 128.677 224.236 128.126 224.346 127.686C224.455 127.135 226.093 124.711 228.386 123.83C230.242 123.169 232.098 121.407 232.754 120.526C234.173 119.314 237.012 117.001 237.231 116.78C237.558 116.56 237.558 115.679 237.231 115.238C236.903 114.908 236.248 113.145 236.248 112.374C236.248 111.603 236.248 109.4 236.029 108.519C235.811 107.638 235.811 106.977 236.248 106.977C236.794 106.977 238.104 107.527 238.432 108.959C238.541 109.841 238.65 110.061 238.541 110.171C238.65 110.281 238.868 110.391 238.978 109.51C239.087 108.409 239.305 106.206 239.305 105.434C239.305 104.663 239.414 103.121 239.524 102.681C239.633 102.13 239.633 101.799 240.288 101.91C240.834 102.02 240.943 102.24 240.943 102.24C240.943 101.689 241.052 100.698 241.707 100.808C242.472 101.028 242.799 101.579 242.799 101.91C242.799 102.24 242.799 102.46 243.018 102.24C243.236 102.13 243.564 101.359 243.891 102.02C244.219 102.681 244.656 103.562 244.546 104.333C244.437 104.884 244.546 105.545 244.546 105.765C244.765 105.545 245.202 105.324 245.42 105.545C245.638 105.765 246.075 107.417 245.966 109.18Z" fill="#6C6FD7"/>
<path d="M61.0897 180.718L60.4753 252.234H101.624L100.211 219.861L99.2355 179.462L98.0068 177.402V172.497C98.0068 171.261 97.1975 156.801 97.1975 155.82C97.0617 154.33 97.342 152.832 98.0068 151.493C98.3217 150.762 98.397 149.948 98.2217 149.17C98.0464 148.392 97.6296 147.691 97.0317 147.167C96.9255 147.051 96.8457 146.912 96.7979 146.762C96.75 146.611 96.7353 146.452 96.7548 146.295C96.7743 146.139 96.8275 145.988 96.9107 145.854C96.9939 145.72 97.1051 145.606 97.2365 145.519C97.5472 145.194 97.7812 144.804 97.9214 144.376C98.0615 143.948 98.104 143.494 98.0459 143.047C97.9888 142.679 98.0144 142.303 98.1207 141.947C98.227 141.59 98.4113 141.262 98.6602 140.987C99.2745 140.163 98.8649 139.329 98.0459 138.711C97.2268 138.093 97.8508 136.445 98.0459 135.827C98.2409 135.209 99.0697 135.621 99.684 135.415C100.298 135.209 102.122 131.088 101.312 130.058C100.637 129.254 100.088 128.351 99.684 127.38C99.4792 126.762 100.493 124.084 100.659 123.26C100.825 122.436 101.478 121.2 103.311 119.13C105.145 117.06 103.516 116.451 103.311 116.245C103.107 116.039 101.878 117.069 102.083 115.833C102.126 114.479 101.848 113.134 101.273 111.909C101.069 111.703 100.659 111.703 100.864 111.085C100.99 109.8 100.764 108.503 100.211 107.338C99.606 105.69 95.9397 106.514 94.9158 106.514C93.892 106.514 91.0154 109.81 90.8496 110.438C90.6839 111.066 90.2353 110.781 90.0306 110.644C89.5504 109.714 89.0063 108.819 88.4022 107.966C87.7495 107.399 86.9852 106.978 86.1594 106.73C85.9018 106.713 85.6531 106.629 85.4389 106.484C85.2247 106.339 85.0526 106.139 84.9405 105.905C83.6079 104.81 82.1746 103.844 80.6599 103.021L80.8646 99.519H82.0835C82.7368 99.519 82.7661 98.2732 82.6978 97.6551C82.4931 97.4491 82.1225 97.0371 82.2883 97.0371C82.454 97.0371 82.2883 95.1829 82.2883 94.1529C82.2883 93.1228 79.8505 90.6506 79.2362 90.0326C78.6219 89.4145 77.403 89.8266 76.5839 89.8266C75.7649 89.8266 73.5319 92.5048 72.9176 93.1228C72.3033 93.7408 72.5861 95.2516 72.7226 96.007C72.7707 96.1749 72.7772 96.3521 72.7415 96.5231C72.7058 96.6942 72.629 96.8538 72.5178 96.988C72.1083 97.4 72.313 98.2241 72.313 98.6361C72.313 99.0482 72.9859 98.7735 73.2881 98.6361C73.3839 98.9065 73.4525 99.1859 73.4929 99.47C73.5271 99.984 73.3822 100.494 73.0834 100.912C72.9417 101.016 72.771 101.072 72.5958 101.072C72.4206 101.072 72.2499 101.016 72.1083 100.912L69.456 97.6061C68.9197 97.4 67.8666 96.8311 68.0324 96.164C68.2371 95.3399 67.4278 88.5414 67.223 87.7174C67.0183 86.8933 67.0182 87.5114 67.0182 84.6272C66.9203 82.0671 66.6467 79.5169 66.1992 76.9948V72.5018C66.6087 72.6391 67.4278 72.747 67.4278 72.0897C67.4278 71.2657 69.2512 68.7935 69.456 68.7935C69.6608 68.7935 70.4798 66.7334 69.456 66.5274C69.1783 66.4629 68.9306 66.3055 68.7535 66.081C68.5763 65.8564 68.4802 65.578 68.4809 65.2913L69.9046 54.9808H69.0074V53.9998C69.7472 54.1175 70.5007 54.1175 71.2404 53.9998C71.4463 53.9028 71.6273 53.7594 71.7693 53.5808C71.9114 53.4022 72.0107 53.1931 72.0595 52.9697V48.1823H63.5079C63.7094 49.785 64.0354 51.3692 64.483 52.9206C64.6578 53.3325 64.941 53.6887 65.3021 53.9507H67.34V54.9317H66.9305C66.794 57.8748 66.521 63.9179 66.521 64.4182C66.521 64.9185 65.3021 65.2422 64.483 65.6543C63.6639 66.0663 63.1569 67.8027 63.1569 70.4416C63.0309 73.0947 62.6189 75.7262 61.9282 78.2898C61.6124 81.0279 61.4788 83.7841 61.5284 86.5402V90.8665C61.6826 94.2606 62.09 97.6383 62.7473 100.971C63.2866 102.923 63.6296 104.924 63.7712 106.945C63.7637 108.51 64.0965 110.057 64.7463 111.478C65.3996 112.959 65.4288 116.216 65.3606 117.658L63.9272 122.2L62.7083 120.964L61.8892 123.848L63.1178 124.466C63.2544 124.741 63.4396 125.369 63.1178 125.702C62.7961 126.036 61.8892 129.548 61.4895 131.265L59.2565 134.129L63.9369 137.014L64.756 136.602C65.1656 138.564 66.1016 142.743 66.5892 143.41C67.2035 144.234 66.794 148.972 65.9749 151.856C65.1558 154.741 68.2176 165.875 68.8319 166.905C69.3785 167.985 69.5891 169.205 69.4365 170.407C69.2805 170.741 64.8925 172.742 62.7181 173.704V177.628L61.0897 180.718Z" fill="#6C6FD7"/>
<path fill-rule="evenodd" clip-rule="evenodd" d="M117.603 252.234C117.641 251.459 117.95 250.723 118.476 250.153C119.001 249.583 119.71 249.216 120.477 249.116C123.104 248.879 123.859 247.433 123.104 246.71C122.83 246.38 122.625 245.997 122.503 245.585C122.381 245.174 122.344 244.741 122.394 244.315C122.394 244.156 122.394 243.964 122.394 243.727C122.632 242.614 122.443 241.452 121.864 240.473C120.906 239.276 121.627 234.949 122.349 233.989C122.702 233.644 123.105 233.354 123.544 233.13C125.122 232.204 127.557 230.757 127.377 227.741C127.309 226.611 127.196 225.481 127.072 224.431C126.768 221.606 126.509 219.121 127.377 217.901C128.786 215.431 129.292 212.547 128.808 209.744C128.335 206.614 127.377 198.446 127.377 197.316C127.377 197.169 127.377 196.932 127.377 196.65C127.377 194.56 127.489 189.363 126.644 189.148C126.076 189.082 125.502 189.184 124.991 189.441C124.48 189.698 124.056 190.099 123.769 190.594C123.296 191.555 121.616 192.515 121.131 192.029C120.951 190.46 120.951 188.876 121.131 187.307C121.3 184.335 121.492 180.935 121.131 180.268C120.877 179.826 120.496 179.469 120.038 179.246C119.58 179.022 119.065 178.942 118.561 179.014C117.603 179.014 114.243 176.608 114.243 173.49C114.243 172.36 114.345 171.366 114.424 170.451C114.679 168.986 114.618 167.483 114.243 166.044C112.91 162.526 112.337 158.764 112.564 155.007C112.62 154.509 112.676 154.012 112.721 153.504C113.15 149.346 113.601 144.974 114.243 143.483C114.531 142.894 114.874 142.334 115.269 141.811C116.359 140.546 117.008 138.959 117.118 137.292C117.18 135.834 117.415 134.389 117.817 132.987C118.099 131.858 118.313 131.044 118.076 130.818C117.603 130.332 115.201 127.214 116.644 124.808C118.18 122.625 119.945 120.614 121.909 118.809C123.194 117.453 126.035 114.776 127.185 114.968C128.617 115.205 131.492 115.453 131.492 114.968C131.492 114.482 132.687 113.533 133.893 113.047C134.851 112.663 137.004 111.77 137.962 111.364C138.298 110.825 138.477 110.203 138.477 109.567C138.477 108.932 138.298 108.31 137.962 107.771C137.457 107.025 137.005 106.243 136.61 105.432C136.159 104.574 135.832 103.93 135.561 103.93C135.088 103.93 134.603 102.484 134.851 101.761C135.248 99.7834 135.486 97.7772 135.561 95.7616C135.561 94.3268 139.642 89.5253 142.032 89.2768C144.422 89.0282 149.698 90.4856 149.924 93.118C150.048 94.4398 150.172 95.5244 150.262 96.3378C150.352 97.1512 150.408 97.6822 150.408 97.9195C150.424 98.1589 150.458 98.3969 150.51 98.6312C150.706 99.3368 150.752 100.076 150.645 100.8C150.464 101.424 150.384 102.072 150.408 102.721C149.92 104.644 149.196 106.5 148.255 108.246C147.697 110.606 147.455 113.029 147.534 115.453C147.77 116.888 148.492 117.611 148.729 117.611C148.965 117.611 149.033 117.837 149.315 118.131C149.806 118.729 150.427 119.208 151.13 119.532C152.088 119.769 156.879 121.215 157.59 124.571C157.84 125.771 158.218 126.942 158.717 128.062C159.11 128.746 159.291 129.533 159.235 130.321C159.179 130.66 159.111 130.943 159.044 131.202C158.739 132.179 158.807 133.234 159.235 134.162C159.957 136.083 159.957 144.488 159.957 145.212C159.957 145.935 162.832 148.804 163.068 149.041C163.305 149.279 163.553 149.041 163.79 147.607C163.936 146.725 164.083 144.861 164.23 142.997C164.32 141.867 164.41 140.613 164.511 139.687C164.579 138.986 164.692 138.184 164.793 137.427C165.064 135.496 165.323 133.575 164.985 133.236C164.657 132.743 164.444 132.182 164.362 131.596C164.28 131.009 164.331 130.411 164.511 129.847C164.917 128.861 165.08 127.791 164.985 126.729V123.848C164.961 123.028 164.801 122.219 164.511 121.453L167.713 112.516L170.824 121.396C170.566 121.455 170.324 121.573 170.117 121.739C169.91 121.905 169.744 122.116 169.63 122.356C169.514 123.105 169.514 123.867 169.63 124.616C169.63 125.011 169.63 125.384 169.63 125.689C169.653 126.069 169.706 126.447 169.787 126.819C170.013 128.084 170.328 129.835 169.63 130.705C168.671 131.903 168.435 132.626 168.671 133.1C168.908 133.575 168.108 147.189 167.713 153.99C168.384 154.522 168.911 155.215 169.246 156.005C169.581 156.794 169.713 157.655 169.63 158.509C169.145 161.153 168.435 162.836 167.713 162.836C167.099 162.922 166.519 163.172 166.033 163.559C166.191 167.163 166.417 174.857 166.033 177.003C165.966 177.399 165.887 177.805 165.808 178.223C165.309 180.256 165.063 182.343 165.075 184.437C165.437 187.711 165.437 191.015 165.075 194.289C164.509 197.46 164.189 200.671 164.117 203.892C164.101 204.702 164.03 205.509 163.903 206.309C163.552 207.806 163.626 209.372 164.117 210.828C165.075 212.986 165.075 216.353 165.075 217.788C165.075 218.454 164.872 220.42 164.647 222.521C164.399 224.95 164.117 227.56 164.117 228.6C164.117 230.509 168.187 233.401 170.588 235.073C171.273 235.532 171.997 235.929 172.752 236.259C174.184 236.915 175.289 237.389 175.616 239.4C175.755 240.018 176.029 240.597 176.419 241.095C176.809 241.593 177.305 241.998 177.87 242.281C178.693 242.835 179.415 243.309 179.415 244.202C179.396 244.854 179.286 245.501 179.088 246.122C178.851 246.947 178.682 247.512 179.415 247.806C180.61 248.28 181.816 249.478 181.816 250.438V252.121L117.603 252.234ZM125.269 137.958C125.19 139.393 125.269 142.477 125.979 142.997C127.109 144.038 127.938 145.365 128.38 146.838C128.38 147.11 128.143 147.381 127.873 147.697C127.576 147.932 127.353 148.248 127.231 148.606C127.109 148.965 127.093 149.352 127.185 149.719C127.4 150.315 127.468 150.953 127.384 151.581C127.299 152.208 127.065 152.806 126.7 153.323C126.272 154.012 125.757 154.642 125.167 155.199C124.04 156.328 122.777 157.729 122.631 159.085C122.441 160.323 122.166 161.546 121.808 162.745C121.504 163.663 121.297 164.61 121.188 165.57C121.188 166.767 120.477 167.491 119.993 166.53C119.445 164.736 119.123 162.88 119.034 161.006C119.034 160.644 119.17 159.198 119.339 157.39C119.621 154.397 119.993 150.408 119.993 148.759C119.993 146.127 121.909 141.325 123.104 140.116L125.269 137.958Z" fill="#6C6FD7"/>
<path d="M341.483 143.223C341.361 142.92 341.258 142.545 341.334 142.244C341.44 141.826 341.234 141.637 340.966 141.509C340.636 141.35 340.333 141.15 340.012 140.978C339.153 140.518 338.186 140.258 337.448 139.57C337.319 139.448 337.155 139.369 336.979 139.344C336.39 139.295 335.944 138.974 335.515 138.625C334.539 137.841 333.468 137.206 332.427 136.528C331.896 136.183 331.389 135.8 331.142 135.193C331.029 134.924 330.917 134.7 330.673 134.533C330.502 134.417 330.36 134.262 330.259 134.081C330.006 133.617 329.622 133.489 329.124 133.516C328.627 133.543 328.62 133.527 328.745 133.01C328.78 132.838 328.788 132.661 328.771 132.486C328.761 132.306 328.689 132.164 328.464 132.234C328.098 132.347 328.16 132.142 328.268 131.951C328.482 131.576 328.467 131.16 328.506 130.756C328.524 130.578 328.495 130.389 328.305 130.304C328.08 130.205 327.973 130.4 327.89 130.537C327.503 131.179 326.941 131.646 326.372 132.106C326.207 132.228 326.062 132.375 325.943 132.542C325.56 133.127 325.533 133.074 324.87 132.988C324.334 132.919 323.78 132.772 323.234 132.897C322.379 133.093 321.531 133.32 320.739 133.715C320.419 133.874 320.063 134.011 319.725 133.879C319.004 133.599 318.311 133.795 317.612 133.937C317.397 133.981 317.153 134.05 317.148 134.327C317.144 134.604 317.394 134.609 317.591 134.656C317.672 134.666 317.749 134.701 317.809 134.756C317.87 134.812 317.912 134.885 317.928 134.966C317.959 135.169 317.782 135.233 317.635 135.295C316.928 135.591 316.171 135.674 315.429 135.841C314.592 136.032 313.709 135.998 312.905 136.368C312.762 136.433 312.619 136.489 312.639 136.665C312.663 136.891 312.526 137.016 312.414 137.17C312.328 137.283 312.22 137.416 312.311 137.57C312.403 137.725 312.58 137.739 312.74 137.683C313 137.595 313.158 137.661 313.238 137.937C313.291 138.06 313.359 138.176 313.441 138.283C313.222 138.377 312.979 138.398 312.747 138.342C312.184 138.192 311.612 138.082 311.021 138.199C310.872 138.227 310.683 138.219 310.652 138.373C310.523 139.026 309.928 139.101 309.479 139.304C309.029 139.508 308.553 139.536 308.252 140.082C307.97 140.593 307.926 140.77 308.511 140.959C308.615 140.993 308.767 140.969 308.783 141.129C308.796 141.263 308.686 141.338 308.592 141.406C308.27 141.636 307.927 141.834 307.566 141.996C307.052 142.234 306.846 142.109 306.814 141.532C306.806 141.385 306.807 141.238 306.814 141.091C306.841 140.214 306.77 139.368 306.265 138.605C305.987 138.183 306.059 137.744 306.369 137.339C306.564 137.083 306.726 136.809 306.737 136.464C306.767 135.524 307.391 135.034 308.313 135.207C308.456 135.238 308.602 135.254 308.748 135.254C309.205 135.245 309.423 135.055 309.461 134.597C309.465 134.495 309.49 134.395 309.535 134.303C309.579 134.211 309.643 134.129 309.721 134.063C309.836 133.972 309.924 133.85 309.974 133.711C310.129 133.259 310.289 132.807 310.449 132.355C310.511 132.197 310.54 132.028 310.533 131.859C310.527 131.689 310.486 131.523 310.413 131.37C310.293 131.125 310.322 130.906 310.368 130.65C310.439 130.251 310.78 129.964 310.779 129.547C310.779 129.018 310.806 128.487 310.763 127.964C310.704 127.227 310.162 126.219 309.255 126.233C309.107 126.216 308.969 126.153 308.86 126.052C307.867 125.328 306.721 125.458 305.696 125.748C304.557 126.067 303.669 126.894 303.02 127.921C302.882 128.148 302.751 128.229 302.57 127.962C302.429 127.756 302.277 127.559 302.113 127.371C301.969 127.192 301.762 127.077 301.534 127.049C301.307 127.021 301.078 127.084 300.896 127.223C300.7 127.374 300.512 127.535 300.333 127.706C299.585 128.384 299.103 129.302 298.266 129.901C297.869 130.185 297.478 130.309 297.042 130.127C296.295 129.811 295.667 130.034 295.015 130.433C294.065 131.019 293.375 132 292.214 132.269C291.858 132.351 291.546 132.558 291.228 132.743C290.696 133.048 290.167 133.345 289.507 133.317C289.149 133.302 288.792 133.441 288.449 133.58C287.418 133.997 286.392 134.422 285.46 135.039C284.754 135.506 283.958 135.831 283.345 136.447C282.001 137.823 280.893 139.414 280.067 141.154C279.65 142.012 279.157 142.842 278.434 143.478C277.815 144.023 277.566 144.598 277.815 145.376C277.927 145.735 277.886 145.822 277.5 145.742C275.426 145.308 273.35 144.885 271.271 144.472C268.071 143.839 264.891 143.116 261.701 142.416C260.958 142.252 260.21 142.11 259.461 141.973C259.253 141.936 259.011 141.894 258.899 142.171C258.679 142.726 258.831 143.003 259.419 143.106C260.352 143.267 261.284 143.454 262.206 143.653C263.397 143.91 264.583 144.218 265.777 144.471C266.417 144.61 267.044 144.798 267.682 144.938C268.876 145.199 270.091 145.371 271.292 145.611C272.037 145.76 272.763 146 273.508 146.14C276.21 146.648 278.883 147.279 281.569 147.862C281.691 147.89 281.865 147.874 281.887 148.039C281.913 148.223 281.733 148.265 281.608 148.332C280.834 148.716 280.054 149.089 279.283 149.475C278.694 149.771 278.119 150.106 277.482 150.267C276.987 150.404 276.522 150.631 276.109 150.936C275.828 151.133 275.613 151.406 275.668 151.788C275.681 151.861 275.667 151.936 275.63 151.999C275.593 152.063 275.534 152.111 275.464 152.134C275.295 152.219 275.114 152.281 274.943 152.36C274.501 152.569 274.457 152.679 274.704 153.101C275.513 154.48 276.529 155.651 278.006 156.349C278.165 156.425 278.358 156.48 278.457 156.71L277.863 156.81C276.681 157.004 275.484 157.117 274.325 157.431C273.337 157.698 272.353 157.978 271.51 158.604C271.332 158.737 271.122 158.819 270.902 158.84C270.001 158.923 269.213 159.239 268.572 159.903C268.495 159.991 268.399 160.061 268.293 160.11C267.843 160.292 267.73 160.7 267.791 161.087C267.838 161.405 267.706 161.488 267.503 161.625C266.873 162.048 266.184 162.372 265.613 162.893C265.185 163.284 264.627 163.502 264.048 163.505C263.309 163.511 263.088 163.603 263.053 164.339C263.011 165.194 262.603 165.717 261.9 166.09C261.772 166.161 261.651 166.244 261.539 166.338C260.908 166.853 260.188 167.052 259.379 167.06C257.785 167.078 256.173 167.105 254.62 167.45C251.918 168.05 249.426 169.138 247.351 171.058C245.616 172.664 243.609 172.873 241.422 172.177C240.77 171.969 240.167 171.514 239.416 171.69C239.343 171.69 239.273 171.662 239.22 171.612C238.695 171.159 238.079 170.8 237.774 170.112C237.464 169.44 236.953 168.883 236.311 168.519C236.16 168.43 235.989 168.353 235.812 168.45C235.614 168.556 235.669 168.753 235.673 168.922C235.687 169.143 235.741 169.36 235.832 169.561C235.891 169.707 236.011 169.863 235.886 170.013C235.761 170.164 235.613 170.03 235.475 170.013C235.089 169.957 234.912 170.126 234.958 170.495C235.034 171.026 235.014 171.031 234.482 171.122C234.183 171.183 233.872 171.135 233.605 170.987C233.01 170.673 232.447 170.355 231.884 169.995C231.658 169.851 231.418 169.596 231.132 169.795C230.865 169.979 231.073 170.247 231.108 170.485C231.155 170.791 230.929 171.003 230.67 170.86C230.198 170.598 229.657 170.441 229.277 170.035C228.987 169.726 228.665 169.551 228.232 169.604C228.043 169.628 227.895 169.52 227.765 169.399C227.636 169.279 227.437 169.06 227.24 169.253C227.043 169.445 227.246 169.64 227.36 169.792C227.553 170.05 227.765 170.293 227.995 170.52C228.081 170.602 228.135 170.713 228.146 170.832C228.157 170.95 228.125 171.069 228.056 171.166C227.919 171.392 227.755 171.156 227.613 171.1C227.371 171.002 227.11 170.931 226.902 171.1C226.626 171.326 226.375 171.291 226.09 171.157C225.969 171.104 225.842 171.066 225.711 171.044C225.648 171.024 225.579 171.024 225.516 171.044C225.452 171.064 225.396 171.104 225.356 171.157C225.262 171.293 225.338 171.416 225.42 171.519C225.705 171.872 225.974 172.242 226.345 172.514C227.3 173.212 228.259 173.903 229.211 174.607C230.767 175.76 232.349 176.857 234.194 177.517C234.903 177.749 235.625 177.941 236.356 178.09C238.136 178.501 239.919 178.934 241.768 178.81C242.964 178.728 244.159 178.601 245.31 178.245C247.044 177.715 248.759 177.123 250.506 176.631C252.007 176.217 253.404 175.488 254.602 174.491C255.632 173.628 256.741 172.896 258.026 172.478C258.597 172.293 259.146 172.054 259.698 171.817C260.369 171.522 261.07 171.304 261.79 171.167C262.15 171.103 262.218 171.222 262.097 171.539C262.049 171.677 262.011 171.819 261.985 171.963C261.823 172.736 262.005 172.969 262.778 172.981C262.925 172.981 263.071 172.985 263.218 172.994C263.574 173.009 263.752 173.199 263.739 173.559C263.731 173.749 263.689 173.937 263.679 174.124C263.667 174.371 263.6 174.648 263.812 174.833C264.047 175.038 264.137 175.31 264.262 175.576C264.677 176.48 264.95 177.472 265.646 178.214C266.509 179.143 267.587 179.822 268.635 180.5C269.393 180.993 270.288 181.242 271.2 181.35C271.912 181.439 272.618 181.564 273.317 181.724C274.399 181.959 275.497 182.117 276.601 182.195C276.511 182.415 276.358 182.458 276.248 182.547C275.579 183.092 274.842 183.583 274.808 184.582C274.8 184.801 274.621 184.932 274.454 185.062C273.713 185.636 272.903 186.105 272.131 186.633C271.325 187.186 270.319 187.455 269.69 188.244C269.323 188.706 268.84 188.922 268.361 189.191C267.663 189.565 266.989 189.98 266.341 190.435C265.901 190.756 265.392 190.957 264.975 191.308C264.558 191.66 264.538 191.954 264.886 192.363C265.257 192.797 265.749 193.054 266.262 193.275C266.366 193.319 266.519 193.324 266.531 193.464C266.543 193.604 266.399 193.645 266.306 193.715C265.527 194.313 264.606 194.707 263.882 195.379C262.908 196.283 261.584 196.729 260.748 197.811C260.68 197.889 260.596 197.95 260.502 197.992C259.774 198.364 259.046 198.737 258.314 199.1C257.267 199.62 256.185 200.079 255.207 200.721C254.363 201.276 253.466 201.738 252.749 202.508C252.067 203.245 251.98 203.165 252.515 204.009C252.819 204.49 252.794 204.585 252.305 204.856C251.487 205.308 250.67 205.77 249.85 206.219C249.673 206.316 249.525 206.434 249.479 206.63C249.443 206.773 249.374 206.906 249.28 207.019C249.185 207.132 249.066 207.222 248.932 207.283C248.309 207.608 247.963 208.029 248.2 208.801C248.339 209.253 247.197 215.757 247.682 215.746C251.048 215.669 255.794 209.691 259.159 209.409C260.011 209.338 260.872 209.382 261.729 209.376C262.09 209.376 262.455 209.467 262.8 209.453C263.186 209.437 263.582 209.363 263.967 209.397C265.367 209.52 266.773 209.5 268.173 209.523C272.387 209.592 276.602 209.565 280.818 209.569C285.633 209.569 290.447 209.569 295.263 209.579C295.702 209.579 295.932 209.432 296.051 209.007C296.17 208.582 296.418 208.241 296.604 207.859C296.961 207.127 297.581 206.576 297.941 205.85C298.279 205.177 298.707 204.564 299.129 203.949C299.551 203.334 299.58 202.325 299.129 201.697C298.679 201.068 298.257 200.446 297.778 199.854C297.236 199.176 296.901 198.313 296.048 197.917C295.308 197.577 294.823 196.77 293.899 196.747C293.645 196.74 293.657 196.499 293.697 196.295C293.817 195.699 294.265 195.354 294.692 194.997C295.623 194.217 296.562 193.446 297.497 192.668C297.703 192.496 297.919 192.303 297.842 192.005C297.75 191.617 297.755 191.212 297.856 190.827C298.035 190.076 297.937 189.266 298.446 188.576C298.668 188.255 298.948 187.978 299.272 187.76C299.759 187.447 299.787 187.242 299.406 186.822C299.133 186.514 298.805 186.26 298.438 186.074C298.007 185.858 297.58 185.633 297.153 185.409C296.947 185.296 296.935 185.194 297.153 185.082C297.545 184.886 297.929 184.674 298.323 184.482C298.898 184.203 299.123 183.732 298.84 183.166C298.649 182.782 298.815 182.657 299.112 182.562C299.544 182.425 299.984 182.314 300.42 182.186C301.404 181.895 301.965 180.748 301.591 179.801C301.548 179.695 301.454 179.591 301.516 179.471C301.847 178.83 301.75 178.075 302.098 177.424C302.272 177.1 302.425 176.905 302.784 176.859C303.613 176.751 304.418 176.502 305.163 176.122C305.305 176.051 305.501 175.974 305.55 175.849C305.747 175.385 306.173 175.305 306.57 175.181C306.919 175.068 307.3 175.046 307.628 174.898C308.416 174.538 309.161 174.701 309.912 175.011C311.595 175.689 313.284 176.367 315.091 176.631C316.34 176.808 317.561 177.096 318.783 177.396C319.295 177.526 319.775 177.762 320.19 178.09C320.321 178.183 320.427 178.307 320.499 178.451C320.571 178.595 320.607 178.754 320.605 178.915C320.63 179.771 320.244 180.509 319.983 181.289C319.975 181.325 319.959 181.359 319.936 181.388C319.913 181.417 319.884 181.44 319.851 181.457C319.818 181.473 319.781 181.481 319.744 181.481C319.707 181.481 319.671 181.472 319.638 181.456C318.94 181.23 318.917 181.248 318.624 181.908C318.174 182.901 317.894 183.952 317.523 184.972C317.396 185.323 317.185 185.71 317.435 186.114C317.504 186.227 317.409 186.303 317.323 186.366C317.239 186.425 317.143 186.463 317.042 186.48C316.941 186.496 316.838 186.491 316.74 186.463C316.34 186.385 315.924 186.273 315.552 186.542C315.416 186.645 315.256 186.708 315.087 186.726C314.918 186.744 314.747 186.716 314.594 186.643C314.172 186.461 314.008 186.654 313.886 187.018C313.557 187.991 313.304 188.989 313.13 190.002C313.041 190.434 313.003 190.875 313.017 191.316C313.04 191.636 313.178 191.731 313.48 191.619C314.154 191.376 314.813 191.091 315.453 190.766C315.776 190.596 316.112 190.349 316.451 190.332C317.247 190.294 317.577 189.767 317.923 189.188C318.268 188.609 318.782 188.134 319.421 187.958C320.355 187.701 320.84 187.146 320.956 186.212C320.983 185.985 321.049 185.783 321.283 185.677C321.583 185.521 321.848 185.304 322.061 185.04C322.877 184.124 323.96 183.608 325.059 183.187C325.826 182.893 326.214 182.437 326.205 181.675C326.187 180.122 326.543 178.648 327.035 177.196C327.568 175.613 327.93 173.963 328.972 172.594C329.182 172.32 329.198 171.974 329.157 171.623C329.096 171.022 328.779 170.516 328.594 169.961C328.264 168.968 327.806 168.634 326.756 168.625C325.921 168.618 325.088 168.688 324.255 168.584C322.715 168.392 321.222 167.94 319.684 167.739C319.403 167.703 319.328 167.537 319.47 167.306C320.019 166.412 320.153 165.34 320.691 164.443C320.804 164.254 320.767 164.049 320.744 163.841C320.703 163.467 320.588 163.092 320.765 162.718C321.131 161.958 321.233 161.096 321.052 160.272C320.989 159.977 321.016 159.707 321.356 159.532C321.669 159.372 321.785 159.044 321.726 158.702C321.67 158.385 321.691 158.059 321.786 157.752C321.836 157.582 321.846 157.403 321.815 157.229C321.739 156.743 321.829 156.645 322.325 156.749C323.789 157.056 325.242 157.379 326.701 157.692C327.014 157.756 327.313 157.871 327.589 158.031C328.221 158.4 328.855 158.764 329.473 159.162C329.677 159.284 329.913 159.338 330.149 159.317C330.572 159.294 331.001 159.211 331.417 159.253C332.939 159.409 334.457 159.153 335.977 159.245C336.083 159.252 336.246 159.296 336.282 159.154C336.318 159.011 336.159 158.98 336.057 158.928C334.398 158.12 332.74 157.311 331.082 156.502C330.75 156.35 330.387 156.277 330.022 156.291C328.896 156.285 327.759 156.665 326.625 156.291C326.358 156.215 326.087 156.153 325.813 156.105C324.884 155.897 323.955 155.696 323.03 155.479C322.878 155.443 322.611 155.43 322.699 155.175C322.844 154.746 322.623 154.21 323.091 153.876C323.173 153.817 323.159 153.684 323.123 153.583C322.965 153.145 323.07 152.732 323.194 152.3C323.532 151.13 323.824 149.947 324.146 148.772C324.225 148.486 324.258 148.165 324.63 148.049C326.807 147.371 328.967 146.636 331.112 145.844C331.345 145.757 331.6 145.745 331.841 145.809C332.547 145.982 333.288 146.018 333.942 146.386C334.049 146.432 334.164 146.455 334.28 146.455C335.119 146.526 335.126 146.523 335.37 147.289C335.543 147.834 335.933 148.187 336.454 148.263C337.056 148.35 337.657 148.471 338.276 148.489C338.92 148.509 339.146 147.966 339.578 147.712C339.691 147.642 339.595 147.48 339.539 147.355C339.21 146.622 338.55 146.264 337.908 145.892C337.729 145.788 337.57 145.698 337.485 145.486C337.651 145.415 337.804 145.334 337.936 145.416C338.543 145.803 339.334 145.676 339.915 146.165C340.029 146.263 340.174 146.318 340.324 146.321C340.474 146.324 340.621 146.275 340.739 146.183C341.814 145.322 341.997 144.489 341.483 143.223ZM320.082 173.455C321.179 173.038 322.289 172.679 323.476 172.647C323.815 172.637 324.148 172.745 324.417 172.952C324.53 173.037 324.615 173.129 324.589 173.236C324.46 173.902 324.342 174.521 324.216 175.138C324.184 175.29 324.103 175.446 323.916 175.364C322.915 174.956 321.784 174.953 320.843 174.361C320.572 174.189 320.31 174.002 320.046 173.818C319.848 173.685 319.826 173.552 320.082 173.455Z" fill="#6C6FD7"/>
</g>
<path d="M224.279 226.346C232.272 223.314 297.66 188.794 309.029 179.148L300.417 226.346L288.014 244.95L181.559 293.182L0 282.846L0.689029 222.556L2.4116 191.55C20.0967 201.082 47.8875 221.458 62.7016 229.791C73.7261 235.992 105.766 254.596 149.175 247.017C192.584 239.438 214.288 230.136 224.279 226.346Z" fill="white"/>
<defs>
<linearGradient id="paint0_linear_127_991" x1="264.086" y1="63.5989" x2="264.086" y2="100.053" gradientUnits="userSpaceOnUse">
<stop stop-color="#F1F1FB"/>
<stop offset="1" stop-color="#ECECF8"/>
</linearGradient>
<linearGradient id="paint1_linear_127_991" x1="275.325" y1="100.027" x2="275.325" y2="126.09" gradientUnits="userSpaceOnUse">
<stop stop-color="#F1F1FB"/>
<stop offset="1" stop-color="#ECECF8"/>
</linearGradient>
<linearGradient id="paint2_linear_127_991" x1="263.956" y1="77.0544" x2="263.956" y2="101.184" gradientUnits="userSpaceOnUse">
<stop stop-color="#ECECF8"/>
<stop offset="1" stop-color="#F1F1FB"/>
</linearGradient>
<linearGradient id="paint3_linear_127_991" x1="196.432" y1="23.983" x2="196.432" y2="52.8671" gradientUnits="userSpaceOnUse">
<stop stop-color="#E7E7F6"/>
<stop offset="1" stop-color="#F1F1FB"/>
</linearGradient>
<linearGradient id="paint4_linear_127_991" x1="128.668" y1="58.0164" x2="128.668" y2="89.8119" gradientUnits="userSpaceOnUse">
<stop stop-color="#DCDCF0"/>
<stop offset="1" stop-color="#F1F1FB"/>
</linearGradient>
<clipPath id="clip0_127_991">
<rect width="330.734" height="249.487" fill="white" transform="translate(30.3173)"/>
</clipPath>
</defs>
</svg>
