<svg width="480" height="384" viewBox="0 0 480 384" fill="none" xmlns="http://www.w3.org/2000/svg">
<path d="M361.458 58.7352C412.144 89.457 477.001 125.972 479.897 165.486C482.794 205 423.833 247.411 373.147 279.374C322.461 311.234 280.05 332.542 222.33 347.955C164.507 363.264 91.3746 372.677 47.9296 340.818C4.48451 308.855 -9.27308 235.722 6.03612 177.899C21.4488 120.179 65.9282 77.7683 109.373 47.0464C152.818 16.3246 195.229 -2.60508 234.743 0.291261C274.258 3.29104 310.772 28.1168 361.458 58.7352Z" fill="#F1F1FB"/>
<g opacity="0.4">
<path opacity="0.02" d="M119.735 35.716L102.481 357.807C102.155 363.923 107.036 369.155 113.386 369.495L357.664 382.579C364.014 382.919 369.426 378.238 369.755 372.125L379.966 180.825L398.044 171.555C401.62 169.79 404.124 166.243 404.331 162.377L405.299 148.354C405.333 148.339 405.684 142.149 405.686 142.113C405.686 142.027 406.587 125.226 406.587 125.19L410.516 51.3015C410.842 45.1862 405.961 39.9535 399.611 39.6135L387.592 38.9695L315.444 35.108L131.824 25.2595C125.475 24.9195 120.064 29.6006 119.735 35.716Z" fill="#292661"/>
<path opacity="0.04" d="M120.159 36.1438L102.95 357.429C102.624 363.529 107.487 368.748 113.814 369.086L357.243 382.127C363.57 382.465 368.965 377.795 369.292 371.695L379.446 180.843L397.178 171.386C400.681 169.657 403.322 166.095 403.525 162.305L404.696 148.46C404.763 148.429 405.133 142.329 405.146 142.257C405.157 142.084 406.047 125.471 406.058 125.37L409.947 51.655C410.273 45.5577 405.407 40.3385 399.08 39.9985L387.102 39.3568L315.188 35.5133L132.207 25.7121C125.88 25.3744 120.486 30.0442 120.159 36.1438Z" fill="#292661"/>
<path opacity="0.06" d="M120.582 36.5693L103.416 357.051C103.089 363.13 107.937 368.34 114.244 368.678L356.822 381.672C363.127 382.01 368.503 377.351 368.828 371.267L378.922 180.861L396.308 171.231C399.74 169.535 402.516 165.96 402.714 162.249L404.095 148.589C404.196 148.541 404.581 142.532 404.588 142.424C404.606 142.165 405.488 125.73 405.488 125.586L409.339 52.0468C409.665 45.9675 404.817 40.7573 398.511 40.4196L386.577 39.7801L314.922 35.9524L132.597 26.1669C126.292 25.8292 120.909 30.4855 120.582 36.5693Z" fill="#292661"/>
<path opacity="0.08" d="M121.008 36.9971L103.896 356.672C103.569 362.741 108.399 367.93 114.683 368.27L356.406 381.217C362.688 381.555 368.046 376.908 368.371 370.84L378.408 180.881L395.448 171.073C398.808 169.414 401.719 165.822 401.913 162.188L403.489 148.694C403.624 148.631 404.025 142.714 404.034 142.57C404.056 142.226 404.934 125.967 404.934 125.775L408.746 52.4116C409.071 46.3323 404.243 41.1536 397.957 40.8136L386.061 40.1764L314.659 36.3487L132.955 26.6173C126.688 26.2818 121.339 30.9291 121.008 36.9971Z" fill="#292661"/>
<path opacity="0.1" d="M121.431 37.425L104.35 356.294C104.026 362.347 108.838 367.525 115.1 367.861L355.98 380.765C362.24 381.1 367.578 376.464 367.914 370.407L377.893 180.895L394.588 170.911C397.876 169.288 400.922 165.681 401.118 162.13L402.906 148.812C403.077 148.733 403.493 142.906 403.505 142.732C403.534 142.3 404.405 126.219 404.419 125.978L408.19 52.8011C408.514 46.7466 403.701 41.5679 397.439 41.2324L385.586 40.5975L314.436 36.7855L133.356 27.0721C127.094 26.7366 121.755 31.3704 121.431 37.425Z" fill="#292661"/>
<path opacity="0.12" d="M121.855 37.8527L104.817 355.914C104.495 361.952 109.289 367.118 115.528 367.453L355.56 380.31C361.799 380.645 367.117 376.02 367.441 369.982L377.362 180.917L393.711 170.758C396.926 169.171 400.108 165.548 400.294 162.069L402.289 148.926C402.494 148.834 402.924 143.097 402.94 142.881C402.974 142.363 403.841 126.458 403.854 126.169L407.587 53.1569C407.909 47.1203 403.113 41.9529 396.877 41.6197L385.065 40.987L314.162 37.1885L133.737 27.5247C127.497 27.1914 122.179 31.814 121.855 37.8527Z" fill="#292661"/>
<path opacity="0.14" d="M122.278 38.2783L105.285 355.529C104.961 361.552 109.739 366.703 115.958 367.037L355.136 379.848C361.355 380.181 366.655 375.57 366.977 369.547L376.841 180.928L392.844 170.594C395.996 169.04 399.303 165.415 399.486 162.004L401.688 149.037C401.924 148.926 402.363 143.282 402.39 143.029C402.431 142.426 403.291 126.696 403.305 126.368L406.999 53.5306C407.321 47.5076 402.543 42.3559 396.327 42.0227L384.555 41.3922L313.905 37.6073L134.119 27.9772C127.902 27.644 122.6 32.2575 122.278 38.2783Z" fill="#292661"/>
<path opacity="0.16" d="M122.701 38.7106L105.751 355.157C105.429 361.164 110.191 366.305 116.385 366.64L354.715 379.407C360.911 379.738 366.198 375.129 366.515 369.131L376.319 180.958L391.981 170.443C395.054 168.925 398.51 165.275 398.684 161.95L401.089 149.161C401.361 149.034 401.825 143.482 401.845 143.192C401.89 142.5 402.746 126.949 402.761 126.566L406.416 53.9044C406.738 47.8971 401.976 42.7567 395.781 42.4212L384.053 41.793L313.648 38.0351L134.501 28.4298C128.319 28.0988 123.023 32.6988 122.701 38.7106Z" fill="#292661"/>
<path opacity="0.18" d="M123.127 39.1339L106.217 354.779C105.898 360.77 110.642 365.897 116.813 366.228L354.294 378.948C360.468 379.278 365.732 374.69 366.052 368.698L375.799 180.973L391.11 170.287C394.111 168.804 397.698 165.138 397.865 161.889L400.477 149.28C400.783 149.138 401.262 143.678 401.285 143.351C401.337 142.575 402.186 127.201 402.201 126.768L405.817 54.2804C406.137 48.2889 401.393 43.1643 395.221 42.8333L383.536 42.2073L313.401 38.4449L134.894 28.8824C128.711 28.5536 123.447 33.1424 123.127 39.1339Z" fill="#292661"/>
<path opacity="0.2" d="M123.55 39.5617L106.685 354.401C106.363 360.376 111.092 365.49 117.241 365.818L353.884 378.495C360.035 378.824 365.282 374.246 365.592 368.268L375.274 180.991L390.241 170.13C393.168 168.682 396.892 165.001 397.061 161.83L399.88 149.392C400.22 149.235 400.715 143.865 400.74 143.502C400.796 142.64 401.64 127.442 401.658 126.962L405.234 54.6497C405.554 48.674 400.828 43.5606 394.676 43.2318L383.031 42.6081L313.135 38.8637L135.258 29.3372C129.116 29.0062 123.87 33.5837 123.55 39.5617Z" fill="#292661"/>
<path opacity="0.22" d="M123.973 39.9895L107.154 354.022C106.834 359.982 111.545 365.082 117.673 365.411L353.454 378.04C359.583 378.369 364.809 373.803 365.129 367.84L374.757 181.012L389.374 169.979C392.234 168.565 396.091 164.87 396.257 161.776L399.281 149.516C399.655 149.343 400.166 144.063 400.182 143.662C400.245 142.712 401.082 127.692 401.1 127.165L404.635 55.028C404.955 49.0657 400.247 43.9681 394.118 43.6394L382.525 43.0134L312.878 39.2825L135.648 29.7898C129.519 29.4611 124.293 34.0273 123.973 39.9895Z" fill="#292661"/>
<path opacity="0.24" d="M124.397 40.4151L107.618 353.644C107.3 359.588 111.993 364.677 118.099 365.001L353.029 377.576C359.135 377.905 364.343 373.35 364.663 367.404L374.232 181.018L388.505 169.805C391.292 168.428 395.284 164.717 395.446 161.7L398.675 149.613C399.083 149.424 399.61 144.236 399.641 143.8C399.709 142.766 400.542 127.921 400.56 127.345L404.057 55.386C404.376 49.4395 399.684 44.3531 393.578 44.0266L382.018 43.4075L312.624 39.7013L136.031 30.2446C129.924 29.9159 124.716 34.4709 124.397 40.4151Z" fill="#292661"/>
<path opacity="0.25" d="M124.82 40.8429L108.087 353.259C107.769 359.192 112.443 364.263 118.527 364.589L352.61 377.126C358.69 377.452 363.884 372.909 364.201 366.978L373.714 181.039L387.641 169.65C390.356 168.299 394.483 164.582 394.641 161.643L398.077 149.735C398.527 149.53 399.061 144.432 399.092 143.959C399.169 142.834 399.993 128.171 400.015 127.547L403.465 55.7687C403.785 49.838 399.108 44.7674 393.024 44.4409L381.505 43.824L312.361 40.1201L136.425 30.6949C130.328 30.3797 125.138 34.9122 124.82 40.8429Z" fill="#292661"/>
<path opacity="0.27" d="M125.245 41.2707L108.551 352.892C108.234 358.809 112.893 363.866 118.954 364.193L352.188 376.676C358.249 377 363.421 372.467 363.739 366.543L373.195 181.054L386.777 169.488C389.423 168.182 393.683 164.44 393.838 161.58L397.479 149.845C397.954 149.62 398.512 144.619 398.546 144.11C398.627 142.903 399.433 128.412 399.469 127.741L402.887 56.1402C403.205 50.2253 398.548 45.1659 392.485 44.8417L381.002 44.227L312.103 40.5366L136.793 31.1475C130.732 30.83 125.56 35.3557 125.245 41.2707Z" fill="#292661"/>
<path opacity="0.29" d="M125.668 41.6985L109.006 352.507C108.691 358.408 113.332 363.452 119.364 363.765L351.767 376.225C357.806 376.547 362.96 372.026 363.275 366.127L372.671 181.084L385.901 169.342C388.475 168.069 392.881 164.314 393.021 161.531L396.867 149.973C397.378 149.748 397.952 144.822 397.992 144.277C398.08 142.984 398.877 128.669 398.916 127.951L402.293 56.5162C402.61 50.6148 397.97 45.5712 391.936 45.247L380.497 44.6346L311.853 40.9622L137.176 31.6001C131.137 31.2803 125.983 35.797 125.668 41.6985Z" fill="#292661"/>
<path opacity="0.31" d="M126.091 42.1263L109.486 352.133C109.171 358.019 113.793 363.051 119.812 363.373L351.344 375.775C357.362 376.097 362.498 371.587 362.813 365.704L372.151 181.106L385.039 169.189C387.54 167.952 392.073 164.181 392.217 161.475L396.27 150.095C396.815 149.843 397.396 145.018 397.443 144.437C397.538 143.059 398.326 128.921 398.368 128.153L401.707 56.8945C402.023 51.0088 397.4 45.9765 391.382 45.6545L379.989 45.0444L311.598 41.3765L137.55 32.0526C131.54 31.7306 126.407 36.2338 126.091 42.1263Z" fill="#292661"/>
<path opacity="0.33" d="M126.518 42.5518L109.953 351.75C109.64 357.62 114.244 362.639 120.24 362.959L350.923 375.325C356.919 375.647 362.035 371.148 362.35 365.278L371.629 181.129L384.173 169.035C386.602 167.835 391.27 164.048 391.409 161.421L395.669 150.214C396.246 149.946 396.854 145.213 396.894 144.597C396.993 143.131 397.777 129.171 397.82 128.356L401.12 57.2705C401.436 51.4006 396.829 46.3818 390.833 46.0621L379.482 45.4541L311.34 41.7953L137.942 32.5052C131.946 32.1809 126.831 36.6841 126.518 42.5518Z" fill="#292661"/>
<path opacity="0.35" d="M126.938 42.9886L110.421 351.372C110.105 357.226 114.699 362.232 120.668 362.551L350.502 374.874C356.475 375.194 361.573 370.707 361.888 364.852L371.12 181.149L383.317 168.88C385.674 167.714 390.477 163.913 390.614 161.362L395.079 150.329C395.689 150.045 396.313 145.403 396.356 144.75C396.462 143.198 397.236 129.414 397.281 128.552L400.537 57.6353C400.852 51.7811 396.259 46.7758 390.288 46.4561L378.978 45.8504L311.088 42.2141L138.329 32.96C132.349 32.6313 127.254 37.1345 126.938 42.9886Z" fill="#292661"/>
<path opacity="0.37" d="M127.362 43.4074L110.887 350.994C110.574 356.832 115.145 361.824 121.098 362.144L350.086 374.408C356.039 374.728 361.119 370.252 361.429 364.413L370.591 181.158L382.444 168.711C384.729 167.585 389.667 163.758 389.8 161.281L394.458 150.437C395.104 150.138 395.742 145.587 395.789 144.898C395.899 143.261 396.667 129.653 396.716 128.741L399.939 58.0091C400.251 52.1684 395.681 47.1766 389.728 46.8592L378.47 46.2557L310.829 42.6329L138.706 33.4126C132.755 33.0929 127.675 37.569 127.362 43.4074Z" fill="#292661"/>
<path opacity="0.39" d="M127.788 43.8353L111.351 350.613C111.04 356.438 115.593 361.421 121.524 361.734L349.651 373.954C355.582 374.273 360.641 369.808 360.952 363.986L370.057 181.176L381.561 168.554C383.779 167.459 388.849 163.629 388.978 161.231L393.855 150.554C394.53 150.239 395.188 145.779 395.237 145.054C395.354 143.329 396.113 129.898 396.165 128.939L399.349 58.3806C399.661 52.558 395.107 47.5729 389.176 47.2622L377.952 46.661L310.563 43.0585L139.079 33.872C133.158 33.5477 128.094 38.0104 127.788 43.8353Z" fill="#292661"/>
<path opacity="0.41" d="M128.21 44.263L111.821 350.235C111.508 356.044 116.045 361.009 121.953 361.326L349.239 373.501C355.147 373.816 360.188 369.365 360.497 363.556L369.541 181.194L380.702 168.403C382.848 167.344 388.056 163.499 388.18 161.177L393.262 150.678C393.976 150.347 394.644 145.977 394.696 145.216C394.818 143.414 395.572 130.15 395.626 129.144L398.778 58.7611C399.089 52.9542 394.552 47.9872 388.646 47.672L377.46 47.073L310.324 43.4705L139.471 34.3177C133.562 34.0025 128.521 38.4539 128.21 44.263Z" fill="#292661"/>
<path opacity="0.43" d="M128.634 44.6886L112.288 349.857C111.977 355.65 116.498 360.602 122.381 360.917L348.818 373.046C354.704 373.361 359.727 368.921 360.036 363.128L369.015 181.212L379.823 168.238C381.896 167.214 387.239 163.355 387.359 161.112L392.657 150.786C393.404 150.439 394.091 146.161 394.145 145.364C394.273 143.468 395.019 130.391 395.075 129.335L398.18 59.1281C398.491 53.3347 393.972 48.3835 388.086 48.0682L376.943 47.4716L310.059 43.8893L139.854 34.7703C133.968 34.4551 128.945 38.8952 128.634 44.6886Z" fill="#292661"/>
<path opacity="0.45" d="M129.057 45.1164L112.753 349.479C112.445 355.256 116.948 360.194 122.811 360.511L348.397 372.596C354.251 372.909 359.263 368.48 359.574 362.702L368.501 181.223L378.969 168.074C380.97 167.086 386.449 163.211 386.563 161.045L392.057 150.897C392.839 150.534 393.541 146.346 393.597 145.513C393.73 143.529 394.469 130.63 394.527 129.527L397.594 59.5019C397.905 53.7243 393.402 48.7843 387.538 48.4691L376.438 47.8747L309.791 44.3036L140.223 35.2207C134.371 34.9099 129.368 39.3388 129.057 45.1164Z" fill="#292661"/>
<path opacity="0.47" d="M129.48 45.5442L113.233 349.1C112.924 354.862 117.409 359.789 123.25 360.102L347.987 372.139C353.827 372.452 358.812 368.034 359.121 362.272L367.992 181.244L378.113 167.916C380.043 166.964 385.656 163.073 385.769 160.986L391.467 151.011C392.282 150.633 393.001 146.537 393.059 145.668C393.199 143.599 393.928 130.875 393.991 129.725L397.006 59.8757C397.315 54.1138 392.83 49.1896 386.989 48.8766L375.929 48.2844L309.545 44.7269L140.617 35.6755C134.776 35.3647 129.789 39.7824 129.48 45.5442Z" fill="#292661"/>
<path opacity="0.49" d="M129.906 45.972L113.695 348.722C113.386 354.468 117.856 359.381 123.674 359.692L347.559 371.684C353.38 371.997 358.347 367.59 358.655 361.842L367.466 181.264L377.242 167.754C379.1 166.838 384.848 162.931 384.956 160.921L390.855 151.135C391.704 150.741 392.431 146.736 392.499 145.83C392.643 143.676 393.366 131.128 393.431 129.93L396.419 60.2472C396.728 54.5011 392.258 49.5881 386.44 49.2774L375.423 48.6875L309.289 45.1434L141 36.1371C135.18 35.8173 130.212 40.2237 129.906 45.972Z" fill="#292661"/>
<path opacity="0.51" d="M130.329 46.3976L114.154 348.337C113.847 354.067 118.299 358.967 124.097 359.278L347.131 371.225C352.929 371.535 357.878 367.14 358.184 361.408L366.938 181.28L376.368 167.603C378.154 166.719 384.037 162.799 384.141 160.867L390.251 151.246C391.136 150.836 391.884 146.92 391.949 145.979C392.1 143.727 392.816 131.366 392.881 130.119L395.831 60.6142C396.137 54.8816 391.688 49.9844 385.89 49.6737L374.916 49.086L309.032 45.5622L141.378 36.5829C135.584 36.2721 130.635 40.6673 130.329 46.3976Z" fill="#292661"/>
<path opacity="0.53" d="M130.753 46.8164L114.622 347.963C114.316 353.68 118.75 358.566 124.529 358.875L346.715 370.776C352.49 371.087 357.421 366.703 357.728 360.987L366.423 181.309L375.506 167.457C377.222 166.608 383.24 162.672 383.34 160.817L389.655 151.372C390.572 150.946 391.337 147.123 391.405 146.146C391.56 143.818 392.269 131.623 392.339 130.328L395.244 61.0014C395.55 55.2846 391.117 50.3987 385.337 50.0902L374.403 49.5048L308.771 45.9878L141.763 37.0354C135.988 36.7269 131.059 41.1086 130.753 46.8164Z" fill="#292661"/>
<path opacity="0.55" d="M131.176 47.2532L115.089 347.585C114.954 350.336 115.917 353.028 117.767 355.069C119.617 357.109 122.202 358.332 124.953 358.467L346.285 370.324C352.038 370.63 356.951 366.271 357.255 360.559L365.892 181.331L374.63 167.304C376.274 166.491 382.428 162.54 382.511 160.761L389.041 151.493C389.991 151.043 390.772 147.319 390.842 146.315C391.004 143.901 391.704 131.884 391.776 130.54L394.647 61.3842C394.714 60.0221 394.512 58.6603 394.052 57.3764C393.592 56.0925 392.884 54.9117 391.968 53.9014C391.052 52.8911 389.946 52.0711 388.713 51.4883C387.481 50.9054 386.145 50.5712 384.783 50.5045L373.892 49.9213L308.51 46.4178L142.146 37.488C139.397 37.3287 136.696 38.2679 134.639 40.0992C132.582 41.9304 131.336 44.5037 131.176 47.2532Z" fill="#292661"/>
<path opacity="0.57" d="M131.599 47.681L115.556 347.207C115.422 349.948 116.381 352.631 118.223 354.666C120.065 356.701 122.639 357.921 125.38 358.059L345.868 369.869C348.609 370.025 351.299 369.087 353.348 367.261C355.398 365.434 356.638 362.869 356.797 360.129L365.376 181.352L373.768 167.146C375.344 166.37 381.628 162.402 381.718 160.702L388.446 151.608C389.432 151.158 390.229 147.512 390.299 146.461C390.468 143.959 391.161 132.12 391.235 130.729L394.068 61.749C394.202 59.0076 393.243 56.325 391.4 54.2905C389.558 52.2561 386.983 51.0361 384.242 50.8986L373.392 50.3176L308.264 46.8164L142.528 37.9406C139.788 37.7844 137.097 38.7226 135.048 40.549C132.999 42.3753 131.758 44.9406 131.599 47.681Z" fill="#292661"/>
<path opacity="0.59" d="M132.025 48.1088L116.023 346.828C115.955 348.182 116.154 349.535 116.609 350.811C117.064 352.087 117.766 353.261 118.675 354.266C119.584 355.271 120.682 356.087 121.906 356.668C123.131 357.248 124.457 357.582 125.81 357.65L345.447 369.414C348.179 369.57 350.86 368.634 352.902 366.812C354.944 364.991 356.178 362.433 356.334 359.701L364.854 181.361L372.899 166.98C374.401 166.237 380.824 162.251 380.912 160.632L387.845 151.716C388.865 151.243 389.678 147.695 389.75 146.605C389.925 144.02 390.612 132.357 390.689 130.918L393.481 62.1137C393.549 60.7605 393.35 59.407 392.895 58.1307C392.44 56.8543 391.738 55.6802 390.829 54.6753C389.92 53.6703 388.822 52.8544 387.597 52.2739C386.373 51.6935 385.046 51.36 383.693 51.2925L372.885 50.7116L308.008 47.2374L142.911 38.3931C141.559 38.3161 140.204 38.5064 138.925 38.953C137.645 39.3996 136.467 40.0938 135.456 40.996C134.445 41.8982 133.621 42.9907 133.033 44.2112C132.444 45.4316 132.102 46.756 132.025 48.1088Z" fill="#292661"/>
<path opacity="0.61" d="M132.448 48.5343L116.489 346.45C116.351 349.174 117.301 351.841 119.129 353.865C120.957 355.889 123.514 357.103 126.238 357.242L345.026 368.95C347.748 369.103 350.419 368.17 352.453 366.354C354.487 364.539 355.716 361.99 355.872 359.269L364.333 181.374L372.032 166.827C373.461 166.12 380.02 162.125 380.104 160.578L387.253 151.833C388.306 151.345 389.135 147.886 389.209 146.76C389.389 144.09 390.069 132.602 390.148 131.116L392.902 62.4853C393.04 59.7616 392.09 57.0948 390.262 55.0713C388.433 53.0479 385.876 51.8336 383.152 51.6956L372.387 51.1169L307.767 47.6562L143.294 38.8457C140.571 38.6927 137.899 39.6274 135.865 41.4443C133.831 43.2612 132.602 45.8115 132.448 48.5343Z" fill="#292661"/>
<path opacity="0.63" d="M132.871 48.9621L116.957 346.072C116.888 347.416 117.084 348.761 117.534 350.029C117.984 351.297 118.68 352.465 119.582 353.464C120.484 354.463 121.573 355.275 122.789 355.853C124.004 356.431 125.322 356.764 126.666 356.832L344.605 368.507C345.949 368.582 347.295 368.392 348.565 367.947C349.836 367.503 351.007 366.812 352.01 365.915C353.014 365.018 353.831 363.931 354.415 362.718C354.998 361.505 355.338 360.189 355.413 358.845L363.816 181.397L371.169 166.664C372.52 165.989 379.221 161.983 379.3 160.513L386.647 151.957C387.732 151.453 388.579 148.087 388.655 146.925C388.842 144.167 389.513 132.857 389.596 131.323L392.298 62.8748C392.368 61.5305 392.171 60.1858 391.721 58.9175C391.27 57.6491 390.574 56.482 389.672 55.4827C388.77 54.4835 387.68 53.6717 386.465 53.0937C385.249 52.5158 383.931 52.183 382.587 52.1144L371.863 51.538L307.487 48.0908L143.668 39.3095C140.956 39.1596 138.297 40.092 136.272 41.9018C134.248 43.7117 133.025 46.2511 132.871 48.9621Z" fill="#292661"/>
<path opacity="0.65" d="M133.295 49.3899L117.423 345.7C117.353 347.04 117.548 348.38 117.996 349.645C118.444 350.909 119.137 352.073 120.035 353.069C120.933 354.066 122.019 354.876 123.23 355.452C124.441 356.029 125.754 356.362 127.094 356.432L344.184 368.059C346.889 368.208 349.543 367.277 351.561 365.469C353.579 363.662 354.797 361.127 354.947 358.422L363.291 181.421L370.298 166.514C371.586 165.879 378.404 161.853 378.489 160.461L386.039 152.072C387.165 151.552 388.02 148.276 388.101 147.078C388.293 144.234 388.957 133.1 389.042 131.517L391.717 63.2395C391.787 61.8991 391.591 60.558 391.142 59.2931C390.693 58.0282 389.999 56.8642 389.1 55.8676C388.201 54.871 387.114 54.0613 385.902 53.4849C384.69 52.9086 383.376 52.5767 382.035 52.5084L371.354 51.9343L307.228 48.5006L144.057 39.7531C141.352 39.6039 138.698 40.5353 136.68 42.3426C134.662 44.1498 133.444 46.6848 133.295 49.3899Z" fill="#292661"/>
<path opacity="0.67" d="M133.723 49.8177L117.894 345.313C117.824 346.649 118.017 347.985 118.463 349.245C118.909 350.506 119.599 351.666 120.494 352.66C121.389 353.654 122.471 354.462 123.678 355.037C124.885 355.613 126.193 355.945 127.529 356.015L343.765 367.599C345.101 367.672 346.437 367.482 347.699 367.038C348.96 366.594 350.122 365.907 351.117 365.014C352.113 364.122 352.923 363.042 353.501 361.836C354.08 360.63 354.415 359.323 354.488 357.987L362.773 181.435L369.436 166.349C370.652 165.748 377.616 161.709 377.686 160.394L385.438 152.191C386.593 151.655 387.464 148.472 387.552 147.238C387.75 144.311 388.406 133.35 388.493 131.72L391.13 63.6178C391.203 62.2808 391.012 60.9424 390.567 59.6794C390.122 58.4164 389.433 57.2536 388.538 56.2576C387.643 55.2616 386.56 54.452 385.351 53.8751C384.143 53.2982 382.833 52.9654 381.496 52.8957L370.857 52.3238L306.981 48.9036L144.44 40.2057C141.745 40.0596 139.101 40.9901 137.091 42.7926C135.082 44.5951 133.87 47.122 133.723 49.8177Z" fill="#292661"/>
<path opacity="0.69" d="M134.142 50.2456L118.358 344.928C118.287 346.259 118.479 347.591 118.923 348.847C119.366 350.104 120.053 351.261 120.944 352.252C121.835 353.243 122.913 354.049 124.115 354.624C125.318 355.198 126.621 355.53 127.952 355.601L343.34 367.138C346.028 367.283 348.662 366.354 350.666 364.557C352.669 362.76 353.876 360.24 354.022 357.553L362.26 181.462L368.565 166.201C369.709 165.636 376.808 161.58 376.873 160.347L384.837 152.311C386.026 151.759 386.918 148.665 387.003 147.395C387.206 144.378 387.857 133.6 387.947 131.92L390.543 63.9916C390.615 62.66 390.424 61.3271 389.981 60.0693C389.538 58.8115 388.851 57.6534 387.96 56.6611C387.069 55.6689 385.991 54.862 384.788 54.2866C383.585 53.7112 382.28 53.3786 380.949 53.3077L370.348 52.7381L306.725 49.3314L144.835 40.6583C143.503 40.585 142.17 40.775 140.912 41.2172C139.653 41.6595 138.494 42.3455 137.501 43.2358C136.508 44.1262 135.7 45.2036 135.124 46.4064C134.548 47.6092 134.214 48.9137 134.142 50.2456Z" fill="#292661"/>
<path opacity="0.71" d="M134.566 50.6711L118.823 344.557C118.679 347.235 119.605 349.861 121.397 351.857C123.189 353.853 125.7 355.056 128.379 355.2L342.918 366.683C345.597 366.825 348.223 365.898 350.218 364.105C352.213 362.312 353.414 359.799 353.557 357.121L361.726 181.462L367.697 166.025C368.769 165.496 376.003 161.425 376.066 160.265L384.233 152.416C385.458 151.849 386.365 148.845 386.453 147.539C386.662 144.437 387.304 133.834 387.396 132.107L389.954 64.3518C390.098 61.6734 389.172 59.0476 387.38 57.0517C385.588 55.0559 383.077 53.8533 380.398 53.7085L369.841 53.1434L306.467 49.7435L145.205 41.1108C142.527 40.9679 139.901 41.8948 137.906 43.6877C135.911 45.4806 134.709 47.9926 134.566 50.6711Z" fill="#292661"/>
<path opacity="0.73" d="M134.991 51.0944L119.29 344.178C119.145 346.848 120.067 349.465 121.851 351.455C123.636 353.445 126.138 354.645 128.808 354.79L342.498 366.237C343.82 366.307 345.143 366.116 346.391 365.674C347.639 365.233 348.787 364.55 349.771 363.664C350.755 362.779 351.555 361.708 352.125 360.514C352.695 359.319 353.025 358.024 353.094 356.702L361.2 181.489L366.829 165.876C367.829 165.383 375.198 161.297 375.257 160.214L383.63 152.529C384.887 151.946 385.812 149.034 385.902 147.693C386.127 144.502 386.751 134.077 386.845 132.303L389.365 64.7256C389.51 62.0561 388.589 59.4384 386.804 57.448C385.019 55.4576 382.517 54.2575 379.848 54.1115L369.333 53.5486L306.209 50.1712L145.587 41.5634C142.918 41.4223 140.302 42.3472 138.315 44.1346C136.328 45.9219 135.132 48.4254 134.991 51.0944Z" fill="#292661"/>
<path opacity="0.75" d="M135.414 51.5267L119.763 343.802C119.617 346.463 120.534 349.072 122.311 351.057C124.089 353.041 126.582 354.238 129.242 354.385L342.082 365.785C343.399 365.854 344.717 365.662 345.961 365.222C347.204 364.781 348.349 364.1 349.329 363.217C350.309 362.334 351.106 361.267 351.673 360.076C352.241 358.885 352.569 357.594 352.637 356.276L360.684 181.507L365.962 165.719C366.89 165.269 374.394 161.159 374.448 160.155L383.031 152.642C384.322 152.043 385.263 149.221 385.355 147.843C385.58 144.567 386.202 134.318 386.301 132.496L388.778 65.0949C388.924 62.4345 388.007 59.8251 386.229 57.8406C384.452 55.856 381.959 54.6588 379.298 54.5123L368.824 53.9517L305.955 50.5856L145.97 42.016C143.309 41.878 140.702 42.8024 138.723 44.5859C136.743 46.3694 135.553 48.866 135.414 51.5267Z" fill="#292661"/>
<path opacity="0.76" d="M135.837 51.9546L120.224 343.422C120.151 344.735 120.338 346.049 120.773 347.29C121.208 348.531 121.884 349.674 122.761 350.654C123.638 351.634 124.7 352.432 125.885 353.001C127.071 353.57 128.357 353.901 129.67 353.973L341.66 365.33C342.973 365.398 344.287 365.206 345.526 364.766C346.765 364.326 347.905 363.646 348.881 362.766C349.857 361.885 350.65 360.821 351.215 359.633C351.78 358.446 352.105 357.159 352.173 355.846L360.168 181.527L365.102 165.561C365.957 165.138 373.597 161.022 373.658 160.094L382.439 152.761C383.763 152.146 384.72 149.417 384.814 148.003C385.04 144.642 385.661 134.568 385.76 132.692L388.201 65.4641C388.344 62.8133 387.43 60.2139 385.658 58.2372C383.886 56.2604 381.401 55.0681 378.751 54.9222L368.319 54.3638L305.7 51.0066L146.352 42.4708C145.039 42.4028 143.725 42.5942 142.486 43.0341C141.247 43.4739 140.106 44.1536 139.13 45.0343C138.153 45.915 137.36 46.9795 136.795 48.1669C136.23 49.3543 135.904 50.6413 135.837 51.9546Z" fill="#292661"/>
<path opacity="0.78" d="M136.26 52.3823L120.691 343.041C120.617 344.35 120.802 345.66 121.234 346.897C121.667 348.134 122.339 349.273 123.212 350.251C124.085 351.228 125.142 352.024 126.323 352.592C127.504 353.161 128.785 353.492 130.093 353.565L341.235 364.875C342.543 364.942 343.852 364.75 345.087 364.311C346.321 363.872 347.457 363.194 348.43 362.316C349.402 361.438 350.192 360.376 350.754 359.193C351.317 358.01 351.64 356.727 351.707 355.418L359.644 181.548L364.228 165.406C365.016 165.019 372.784 160.887 372.836 160.038L381.827 152.88C383.177 152.25 384.157 149.611 384.256 148.152C384.481 144.702 385.1 134.807 385.202 132.888L387.604 65.8379C387.752 63.1956 386.845 60.6027 385.082 58.6292C383.318 56.6557 380.844 55.4632 378.201 55.3139L367.81 54.7578L305.441 51.4164L146.733 42.9234C144.09 42.7892 141.502 43.7103 139.538 45.4842C137.574 47.2581 136.395 49.7394 136.26 52.3823Z" fill="#292661"/>
<path opacity="0.8" d="M136.686 52.8079L121.15 342.663C121 345.296 121.902 347.881 123.658 349.849C125.413 351.817 127.879 353.007 130.512 353.158L340.811 364.416C343.445 364.547 346.024 363.627 347.98 361.858C349.936 360.089 351.109 357.615 351.241 354.982L359.121 181.557L363.361 165.25C364.077 164.899 371.987 160.747 372.028 159.98L381.225 153C382.619 152.353 383.605 149.805 383.702 148.318C383.927 144.783 384.544 135.066 384.65 133.098L387.012 66.2252C387.161 63.5918 386.259 61.0069 384.503 59.0389C382.747 57.0709 380.281 55.8808 377.648 55.7305L367.29 55.1766L305.173 51.8487L147.111 43.3827C144.479 43.2516 141.903 44.1706 139.948 45.9379C137.993 47.7052 136.82 50.1761 136.686 52.8079Z" fill="#292661"/>
<path opacity="0.82" d="M137.1 53.2356L121.625 342.285C121.55 343.584 121.731 344.886 122.159 346.115C122.588 347.344 123.254 348.477 124.12 349.449C124.986 350.421 126.035 351.212 127.207 351.778C128.379 352.344 129.651 352.674 130.951 352.748L340.393 363.968C341.692 364.032 342.992 363.841 344.218 363.403C345.444 362.965 346.571 362.29 347.536 361.417C348.501 360.543 349.284 359.488 349.841 358.311C350.398 357.135 350.717 355.86 350.781 354.56L358.601 181.581L362.485 165.088C363.129 164.771 371.174 160.61 371.212 159.91L380.615 153.105C382.04 152.443 383.045 149.987 383.148 148.465C383.391 144.844 383.988 135.302 384.096 133.287L386.418 66.5854C386.493 65.286 386.311 63.9846 385.883 62.7555C385.455 61.5264 384.789 60.3936 383.923 59.422C383.058 58.4503 382.009 57.6587 380.837 57.0925C379.665 56.5264 378.393 56.1966 377.094 56.1222L366.788 55.5705L304.921 52.2562L147.489 43.824C146.189 43.7591 144.888 43.9511 143.662 44.3891C142.436 44.8271 141.309 45.5025 140.344 46.3766C139.379 47.2507 138.596 48.3063 138.039 49.4833C137.483 50.6602 137.164 51.9353 137.1 53.2356Z" fill="#292661"/>
<path opacity="0.84" d="M137.532 53.6635L122.093 341.906C122.017 343.201 122.198 344.498 122.623 345.723C123.049 346.949 123.712 348.078 124.575 349.047C125.437 350.016 126.481 350.805 127.649 351.37C128.816 351.936 130.084 352.265 131.379 352.34L339.969 363.513C341.265 363.578 342.561 363.386 343.783 362.95C345.006 362.514 346.13 361.841 347.092 360.969C348.054 360.098 348.834 359.046 349.389 357.873C349.944 356.7 350.263 355.429 350.326 354.133L358.088 181.599L361.636 164.938C362.208 164.656 370.388 160.482 370.417 159.862L380.025 153.234C381.486 152.558 382.502 150.19 382.612 148.631C382.862 144.923 383.452 135.559 383.562 133.496L385.843 66.9704C385.919 65.6756 385.738 64.3786 385.312 63.1534C384.887 61.9283 384.224 60.799 383.361 59.8301C382.499 58.8612 381.454 58.0716 380.287 57.5065C379.12 56.9414 377.852 56.6118 376.557 56.5365L366.292 55.9871L304.673 52.6705L147.881 44.2721C146.584 44.2087 145.288 44.4015 144.067 44.8392C142.845 45.277 141.721 45.9512 140.76 46.8234C139.799 47.6956 139.019 48.7486 138.466 49.9222C137.912 51.0959 137.594 52.3672 137.532 53.6635Z" fill="#292661"/>
<path opacity="0.86" d="M137.955 54.0913L122.559 341.528C122.266 346.984 126.407 351.642 131.806 351.931L339.547 363.06C340.839 363.123 342.13 362.93 343.346 362.494C344.563 362.057 345.682 361.385 346.639 360.516C347.597 359.647 348.373 358.598 348.925 357.429C349.477 356.26 349.793 354.994 349.855 353.703L357.558 181.62L360.76 164.775C361.26 164.528 369.575 160.337 369.604 159.795L379.419 153.342C380.914 152.651 381.95 150.374 382.058 148.78C382.312 144.986 382.895 135.797 383.008 133.694L385.259 67.3442C385.336 66.0519 385.157 64.7571 384.733 63.5341C384.309 62.311 383.647 61.1836 382.786 60.2165C381.926 59.2494 380.883 58.4616 379.717 57.8981C378.552 57.3347 377.287 57.0066 375.994 56.9328L365.772 56.3857L304.416 53.0983L148.261 44.7336C142.861 44.4454 138.248 48.6334 137.955 54.0913Z" fill="#292661"/>
<path opacity="0.88" d="M138.379 54.5191L123.025 341.148C122.735 346.588 126.853 351.233 132.234 351.521L339.127 362.603C344.506 362.891 349.102 358.715 349.392 353.273L357.047 181.635L359.905 164.616C360.333 164.404 368.783 160.198 368.808 159.734L378.829 153.457C380.358 152.747 381.41 150.563 381.531 148.933C381.792 145.054 382.367 136.04 382.482 133.883L384.686 67.709C384.979 62.2668 380.858 57.6218 375.477 57.3336L365.297 56.7887L304.169 53.5171L148.653 45.1862C143.267 44.9003 138.676 49.068 138.379 54.5191Z" fill="#292661"/>
<path opacity="0.9" d="M138.804 54.9447L123.493 340.772C123.203 346.196 127.307 350.827 132.664 351.116L338.705 362.148C344.062 362.437 348.639 358.271 348.93 352.845L356.516 181.653L359.026 164.458C359.384 164.28 367.969 160.061 367.99 159.673L378.216 153.574C379.779 152.849 380.846 150.755 380.957 149.089C381.225 145.121 381.792 136.286 381.911 134.082L384.075 68.0805C384.366 62.6564 380.261 58.0248 374.904 57.7366L364.772 57.194L303.909 53.9337L149.033 45.6411C143.67 45.3528 139.094 49.5183 138.804 54.9447Z" fill="#292661"/>
<path opacity="0.92" d="M139.228 55.3724L123.96 340.391C123.669 345.795 127.758 350.42 133.092 350.706L338.285 361.698C343.619 361.984 348.176 357.83 348.467 352.419L355.996 181.674L358.16 164.303C358.446 164.161 367.166 159.925 367.182 159.615L377.614 153.691C379.21 152.95 380.293 150.948 380.408 149.246C380.683 145.193 381.241 136.536 381.363 134.28L383.488 68.4565C383.779 63.0527 379.69 58.4279 374.356 58.1419L364.26 57.6015L303.649 54.3547L149.414 46.0936C144.08 45.8077 139.516 49.9686 139.228 55.3724Z" fill="#292661"/>
<path opacity="0.94" d="M139.651 55.8003L124.426 340.013C124.137 345.417 128.208 350.014 133.52 350.298L337.864 361.243C343.175 361.529 347.714 357.386 347.996 351.989L355.473 181.687L357.293 164.14C357.518 164.035 366.362 159.784 366.373 159.552L377.012 153.803C378.642 153.047 379.741 151.135 379.858 149.395C380.137 145.259 380.691 136.786 380.813 134.473L382.9 68.8258C383.191 63.4219 379.117 58.8264 373.806 58.5405L363.753 58.0023L303.392 54.769L149.792 46.5462C144.481 46.2625 139.939 50.4054 139.651 55.8003Z" fill="#292661"/>
<path opacity="0.96" d="M140.075 56.228L124.894 339.635C124.606 345.016 128.659 349.607 133.948 349.888L337.443 360.791C342.732 361.072 347.253 356.94 347.542 351.559L354.954 181.71L356.426 163.985C356.568 163.913 365.559 159.648 365.568 159.493L376.411 153.92C378.075 153.15 379.19 151.329 379.309 149.552C379.595 145.328 380.14 137.024 380.266 134.674L382.313 69.2018C382.601 63.8204 378.548 59.2294 373.257 58.9457L363.244 58.4098L303.126 55.1901L150.173 46.9987C144.884 46.715 140.363 50.8467 140.075 56.228Z" fill="#292661"/>
<path opacity="0.98" d="M140.498 56.6536L125.36 339.256C125.072 344.622 129.109 349.199 134.367 349.481L337.011 360.336C342.277 360.617 346.78 356.508 347.068 351.134L354.42 181.73L355.546 163.83C355.618 163.794 364.743 159.513 364.748 159.437L375.797 154.033C376.627 153.638 377.339 153.031 377.86 152.273C378.38 151.514 378.691 150.632 378.76 149.714C379.05 145.405 379.588 137.277 379.717 134.879L381.725 69.5823C382.013 64.219 377.976 59.6415 372.719 59.3578L362.746 58.8241L302.888 55.6179L150.556 47.4513C145.289 47.1699 140.786 51.2903 140.498 56.6536Z" fill="#292661"/>
<path d="M381.138 69.9493C381.424 64.5995 377.405 60.0423 372.161 59.7541L362.229 59.2227L302.622 56.0299L150.939 47.9039C145.693 47.6247 141.21 51.7316 140.921 57.0814L125.836 338.878C125.55 344.228 129.569 348.785 134.815 349.073L336.61 359.881C341.854 360.162 346.339 356.053 346.625 350.703L354.69 163.674L375.207 154.159C376.047 153.78 376.77 153.181 377.299 152.426C377.827 151.671 378.142 150.787 378.211 149.868C378.508 145.472 379.037 137.52 379.168 135.075L381.138 69.9493Z" fill="#292661"/>
</g>
<path d="M399.412 49.9685C399.732 44.0243 395.046 38.9357 388.951 38.6114L377.407 37.9945L308.123 34.2816L131.823 24.8384C125.726 24.5119 120.524 29.0669 120.207 35.0134L103.423 348.211C103.106 354.155 107.789 359.244 113.887 359.568L348.44 372.132C354.538 372.458 359.739 367.903 360.056 361.957L370.02 175.975L387.656 167.133C389.358 166.293 390.807 165.017 391.855 163.435C392.903 161.853 393.512 160.021 393.621 158.126L399.412 49.9685Z" fill="#C28C02"/>
<path d="M392.704 45.8324C392.858 42.9787 391.871 40.1809 389.963 38.0541C388.054 35.9273 385.378 34.6457 382.525 34.491L371.267 33.8876L303.696 30.267L131.746 21.058C130.332 20.982 128.917 21.1853 127.582 21.6563C126.247 22.1272 125.017 22.8565 123.964 23.8027C122.911 24.7488 122.054 25.8931 121.443 27.1703C120.832 28.4476 120.478 29.8326 120.403 31.2465L103.626 344.455C103.55 345.869 103.753 347.284 104.224 348.619C104.695 349.955 105.424 351.184 106.371 352.237C107.317 353.291 108.461 354.147 109.738 354.758C111.015 355.37 112.401 355.723 113.814 355.799L342.563 368.052C345.419 368.204 348.217 367.216 350.344 365.305C352.471 363.394 353.752 360.716 353.905 357.861L363.868 171.879L381.081 162.999C382.755 162.137 384.173 160.852 385.196 159.272C386.218 157.692 386.81 155.872 386.911 153.992L392.704 45.8324Z" fill="#EDAB02"/>
<path d="M381.103 53.4946L154.433 29.2705L122.03 332.469L348.7 356.693L381.103 53.4946Z" fill="#DEDEDE"/>
<path d="M346.253 40.0238L118.801 55.2507L139.169 359.495L366.62 344.268L346.253 40.0238Z" fill="#F7F7F7"/>
<path d="M360.695 39.9939H132.734V344.919H360.695V39.9939Z" fill="white"/>
<path opacity="0.09" d="M360.695 51.306V344.921L365.433 344.455V51.5965L360.695 51.306Z" fill="url(#paint0_linear_115_4417)"/>
<path opacity="0.09" d="M132.735 54.3029V333.609L128.14 333.121V54.6091L132.735 54.3029Z" fill="url(#paint1_linear_115_4417)"/>
<path opacity="0.09" d="M360.695 36.5513H132.734V39.994H360.695V36.5513Z" fill="url(#paint2_linear_115_4417)"/>
<path opacity="0.09" d="M349.916 345.358L349.68 347.583L140.527 362.565L139.191 359.48L349.916 345.358Z" fill="url(#paint3_linear_115_4417)"/>
<path opacity="0.09" d="M138.218 344.921L138.456 348.497L326.08 346.957L349.918 345.358L356.461 344.921H138.218Z" fill="url(#paint4_linear_115_4417)"/>
<g opacity="0.5">
<path d="M314.036 323.378C308.747 323.378 303.577 321.81 299.179 318.871C294.781 315.933 291.354 311.756 289.33 306.87C287.306 301.983 286.776 296.606 287.808 291.419C288.84 286.231 291.387 281.466 295.127 277.726C298.867 273.986 303.632 271.439 308.819 270.407C314.007 269.375 319.384 269.905 324.27 271.929C329.157 273.953 333.333 277.381 336.272 281.778C339.21 286.176 340.778 291.347 340.778 296.636C340.771 303.726 337.951 310.523 332.937 315.537C327.924 320.55 321.126 323.37 314.036 323.378ZM314.036 271.866C309.138 271.866 304.349 273.318 300.276 276.04C296.203 278.761 293.029 282.63 291.154 287.155C289.279 291.681 288.789 296.661 289.745 301.465C290.7 306.27 293.059 310.683 296.523 314.147C299.987 317.611 304.4 319.969 309.204 320.925C314.009 321.881 318.989 321.39 323.514 319.516C328.04 317.641 331.908 314.467 334.63 310.394C337.351 306.321 338.804 301.532 338.804 296.633C338.796 290.067 336.184 283.772 331.541 279.129C326.898 274.486 320.603 271.874 314.036 271.866Z" fill="#0072D6"/>
<path d="M314.036 318.983C309.616 318.983 305.294 317.672 301.619 315.216C297.944 312.76 295.079 309.27 293.388 305.186C291.696 301.102 291.254 296.608 292.116 292.272C292.979 287.937 295.107 283.955 298.233 280.829C301.359 277.704 305.342 275.575 309.677 274.713C314.013 273.851 318.506 274.294 322.59 275.986C326.674 277.678 330.164 280.543 332.62 284.218C335.075 287.894 336.386 292.215 336.385 296.636C336.378 302.561 334.021 308.241 329.831 312.43C325.641 316.62 319.961 318.976 314.036 318.983ZM314.036 275.027C309.761 275.027 305.582 276.295 302.027 278.67C298.472 281.045 295.702 284.421 294.066 288.371C292.43 292.32 292.002 296.666 292.836 300.859C293.67 305.052 295.729 308.904 298.752 311.927C301.775 314.95 305.626 317.008 309.819 317.842C314.012 318.677 318.358 318.248 322.308 316.612C326.257 314.976 329.633 312.206 332.008 308.651C334.384 305.097 335.651 300.918 335.651 296.642C335.646 290.911 333.368 285.416 329.315 281.363C325.262 277.311 319.767 275.032 314.036 275.027Z" fill="#1E80D6"/>
<path d="M314.036 313.03C310.588 313.034 307.227 311.95 304.431 309.932C301.636 307.914 299.549 305.064 298.469 301.79C298.387 301.541 298.407 301.27 298.524 301.037C298.642 300.803 298.847 300.625 299.096 300.543C299.344 300.461 299.615 300.481 299.849 300.599C300.083 300.716 300.26 300.922 300.342 301.17C301.297 304.048 303.134 306.552 305.592 308.326C308.05 310.1 311.005 311.055 314.036 311.055C317.068 311.055 320.023 310.1 322.481 308.326C324.939 306.552 326.776 304.048 327.731 301.17C327.771 301.047 327.836 300.934 327.92 300.836C328.005 300.737 328.108 300.657 328.224 300.599C328.34 300.541 328.466 300.506 328.595 300.496C328.724 300.487 328.854 300.503 328.977 300.543C329.1 300.584 329.214 300.649 329.312 300.733C329.41 300.818 329.49 300.921 329.548 301.037C329.607 301.152 329.642 301.278 329.651 301.408C329.661 301.537 329.645 301.667 329.604 301.79C328.523 305.064 326.437 307.914 323.641 309.932C320.846 311.95 317.484 313.034 314.036 313.03Z" fill="#52AEFF"/>
<path d="M328.446 292.153C328.246 292.153 328.051 292.092 327.886 291.978C327.722 291.864 327.596 291.703 327.525 291.516C326.502 288.822 324.696 286.496 322.339 284.838C319.983 283.18 317.184 282.266 314.303 282.213C311.422 282.16 308.591 282.971 306.175 284.541C303.759 286.111 301.868 288.368 300.747 291.022C300.696 291.142 300.623 291.25 300.53 291.341C300.438 291.432 300.329 291.504 300.208 291.552C300.088 291.601 299.96 291.625 299.83 291.624C299.701 291.623 299.573 291.597 299.453 291.546C299.334 291.495 299.226 291.422 299.135 291.329C299.044 291.237 298.972 291.128 298.924 291.008C298.875 290.888 298.851 290.759 298.852 290.629C298.853 290.5 298.879 290.372 298.93 290.252C300.206 287.236 302.355 284.671 305.102 282.887C307.848 281.104 311.065 280.183 314.34 280.243C317.614 280.304 320.795 281.343 323.474 283.227C326.152 285.111 328.206 287.754 329.369 290.815C329.415 290.936 329.437 291.065 329.433 291.195C329.429 291.324 329.4 291.452 329.347 291.57C329.294 291.688 329.218 291.795 329.123 291.883C329.029 291.972 328.918 292.042 328.797 292.087C328.685 292.131 328.566 292.153 328.446 292.153Z" fill="#52AEFF"/>
<path d="M314.043 308.549C311.7 308.551 309.409 307.862 307.456 306.568C305.504 305.273 303.977 303.431 303.067 301.272C303.032 301.211 303.01 301.144 303.003 301.074C302.995 301.005 303.003 300.935 303.025 300.868C303.047 300.802 303.083 300.741 303.131 300.69C303.178 300.638 303.236 300.598 303.3 300.57C303.365 300.543 303.434 300.53 303.504 300.531C303.574 300.533 303.643 300.549 303.706 300.579C303.769 300.609 303.825 300.653 303.87 300.706C303.915 300.759 303.948 300.822 303.967 300.889C304.812 302.884 306.231 304.584 308.043 305.772C309.856 306.959 311.98 307.582 314.147 307.56C316.314 307.538 318.425 306.872 320.213 305.648C322.001 304.424 323.385 302.696 324.189 300.684C324.237 300.563 324.332 300.465 324.452 300.413C324.572 300.362 324.708 300.36 324.83 300.408C324.951 300.457 325.048 300.551 325.1 300.671C325.152 300.792 325.154 300.927 325.105 301.049C324.228 303.266 322.704 305.167 320.731 306.505C318.758 307.843 316.427 308.555 314.043 308.549Z" fill="#1E80D6"/>
<path d="M324.419 292.351C324.324 292.351 324.231 292.325 324.151 292.274C324.071 292.223 324.008 292.151 323.968 292.065C323.108 290.197 321.738 288.61 320.017 287.486C318.295 286.362 316.291 285.746 314.235 285.709C312.179 285.673 310.154 286.217 308.394 287.28C306.633 288.342 305.208 289.88 304.282 291.716C304.223 291.833 304.119 291.922 303.994 291.962C303.869 292.003 303.733 291.992 303.616 291.932C303.499 291.872 303.41 291.769 303.37 291.644C303.329 291.519 303.34 291.383 303.4 291.266C304.409 289.264 305.963 287.588 307.883 286.429C309.802 285.271 312.009 284.677 314.251 284.716C316.492 284.756 318.677 285.427 320.555 286.652C322.432 287.878 323.926 289.608 324.864 291.644C324.892 291.703 324.907 291.766 324.91 291.831C324.912 291.896 324.902 291.961 324.88 292.022C324.857 292.082 324.823 292.138 324.779 292.186C324.735 292.234 324.682 292.272 324.623 292.299C324.56 292.331 324.49 292.349 324.419 292.351Z" fill="#1E80D6"/>
</g>
<path opacity="0.32" d="M298.927 87.2978H163.901C162.951 87.2978 162.181 88.068 162.181 89.018V89.7836C162.181 90.7336 162.951 91.5038 163.901 91.5038H298.927C299.877 91.5038 300.647 90.7336 300.647 89.7836V89.018C300.647 88.068 299.877 87.2978 298.927 87.2978Z" fill="#A6A6A6"/>
<path opacity="0.32" d="M329.526 99.2831H163.901C162.951 99.2831 162.181 100.053 162.181 101.003V101.769C162.181 102.719 162.951 103.489 163.901 103.489H329.526C330.476 103.489 331.246 102.719 331.246 101.769V101.003C331.246 100.053 330.476 99.2831 329.526 99.2831Z" fill="#A6A6A6"/>
<path opacity="0.68" d="M329.526 75.3126H163.901C162.951 75.3126 162.181 76.0828 162.181 77.0328V77.7984C162.181 78.7484 162.951 79.5186 163.901 79.5186H329.526C330.476 79.5186 331.246 78.7484 331.246 77.7984V77.0328C331.246 76.0828 330.476 75.3126 329.526 75.3126Z" fill="#A6A6A6"/>
<path opacity="0.32" d="M250.741 112.946H163.901C162.951 112.946 162.181 113.716 162.181 114.666V115.432C162.181 116.382 162.951 117.152 163.901 117.152H250.741C251.691 117.152 252.461 116.382 252.461 115.432V114.666C252.461 113.716 251.691 112.946 250.741 112.946Z" fill="#A6A6A6"/>
<path opacity="0.32" d="M298.927 158.779H163.901C162.951 158.779 162.181 159.55 162.181 160.5V161.265C162.181 162.215 162.951 162.985 163.901 162.985H298.927C299.877 162.985 300.647 162.215 300.647 161.265V160.5C300.647 159.55 299.877 158.779 298.927 158.779Z" fill="#A6A6A6"/>
<path opacity="0.32" d="M329.526 170.765H163.901C162.951 170.765 162.181 171.535 162.181 172.485V173.25C162.181 174.2 162.951 174.971 163.901 174.971H329.526C330.476 174.971 331.246 174.2 331.246 173.25V172.485C331.246 171.535 330.476 170.765 329.526 170.765Z" fill="#A6A6A6"/>
<path opacity="0.68" d="M329.526 146.794H163.901C162.951 146.794 162.181 147.564 162.181 148.514V149.28C162.181 150.23 162.951 151 163.901 151H329.526C330.476 151 331.246 150.23 331.246 149.28V148.514C331.246 147.564 330.476 146.794 329.526 146.794Z" fill="#A6A6A6"/>
<path opacity="0.32" d="M250.741 184.43H163.901C162.951 184.43 162.181 185.2 162.181 186.15V186.915C162.181 187.865 162.951 188.636 163.901 188.636H250.741C251.691 188.636 252.461 187.865 252.461 186.915V186.15C252.461 185.2 251.691 184.43 250.741 184.43Z" fill="#A6A6A6"/>
<path opacity="0.32" d="M298.927 230.263H163.901C162.951 230.263 162.181 231.033 162.181 231.983V232.749C162.181 233.699 162.951 234.469 163.901 234.469H298.927C299.877 234.469 300.647 233.699 300.647 232.749V231.983C300.647 231.033 299.877 230.263 298.927 230.263Z" fill="#A6A6A6"/>
<path opacity="0.32" d="M329.526 242.248H163.901C162.951 242.248 162.181 243.019 162.181 243.969V244.734C162.181 245.684 162.951 246.454 163.901 246.454H329.526C330.476 246.454 331.246 245.684 331.246 244.734V243.969C331.246 243.019 330.476 242.248 329.526 242.248Z" fill="#A6A6A6"/>
<path opacity="0.68" d="M329.526 218.278H163.901C162.951 218.278 162.181 219.048 162.181 219.998V220.764C162.181 221.714 162.951 222.484 163.901 222.484H329.526C330.476 222.484 331.246 221.714 331.246 220.764V219.998C331.246 219.048 330.476 218.278 329.526 218.278Z" fill="#A6A6A6"/>
<path opacity="0.32" d="M250.741 255.911H163.901C162.951 255.911 162.181 256.681 162.181 257.631V258.397C162.181 259.347 162.951 260.117 163.901 260.117H250.741C251.691 260.117 252.461 259.347 252.461 258.397V257.631C252.461 256.681 251.691 255.911 250.741 255.911Z" fill="#A6A6A6"/>
<path d="M220.103 307.23C218.618 307.34 217.126 307.171 215.704 306.73C214.303 306.299 212.983 305.639 211.799 304.775C211.045 304.228 210.352 303.599 209.732 302.902C209.769 302.783 209.805 302.677 209.834 302.542C209.908 302.205 209.941 301.86 209.933 301.515C209.916 300.847 209.757 300.19 209.467 299.588C209.18 298.984 208.76 298.453 208.24 298.034C207.698 297.594 207.043 297.316 206.351 297.23L205.069 297.084L205.418 298.288C205.875 299.841 206.631 301.29 207.643 302.553L207.695 302.616C207.292 303.334 206.657 303.894 205.894 304.203C205.507 304.365 205.097 304.467 204.68 304.505C204.25 304.542 203.818 304.519 203.394 304.438C202.507 304.256 201.666 303.9 200.918 303.391C200.532 303.132 200.169 302.842 199.832 302.524C199.708 302.404 199.591 302.278 199.474 302.152C199.8 301.291 199.895 300.36 199.751 299.45C199.665 298.893 199.498 298.35 199.256 297.84C198.785 296.856 198.097 295.99 197.245 295.307L195.761 294.096L195.311 295.951C195.161 296.575 195.09 297.215 195.099 297.856C195.122 298.484 195.215 299.107 195.376 299.714C195.544 300.304 195.77 300.877 196.052 301.423C196.228 301.758 196.422 302.083 196.633 302.398L196.574 302.454C196.346 302.65 196.083 302.802 195.8 302.904C195.489 302.998 195.165 303.04 194.84 303.028C194.488 303.023 194.138 302.964 193.802 302.855C193.452 302.748 193.117 302.597 192.805 302.404C192.492 302.219 192.202 301.998 191.94 301.745C191.668 301.466 191.421 301.165 191.2 300.844C190.299 299.534 189.77 297.867 189.254 296.149L188.504 293.652L187.439 295.999C186.208 298.7 184.598 301.29 182.986 303.908L182.914 303.539L182.646 302.267C182.472 301.418 182.279 300.576 182.083 299.732C181.887 298.887 181.671 298.05 181.459 297.21C181.248 296.37 181.009 295.539 180.784 294.704C180.333 293.042 179.811 291.401 179.28 289.764C179.304 289.444 179.327 289.127 179.349 288.809C179.437 287.62 179.503 286.432 179.575 285.245L179.602 284.813L179.129 284.743C178.435 284.644 177.74 284.549 177.046 284.459L176.19 284.346L176.443 285.218L177.154 287.695L177.83 290.171C178.28 291.826 178.681 293.488 179.088 295.147C179.496 296.807 179.856 298.48 180.214 300.153C180.392 300.988 180.57 301.826 180.725 302.666L180.971 303.922L181.196 305.185C181.272 305.624 181.347 306.065 181.421 306.504C180.865 307.448 180.322 308.405 179.825 309.387C179.013 310.938 178.343 312.559 177.821 314.23C177.284 315.901 176.958 317.632 176.85 319.384L176.819 320.043V320.703V321.032L176.846 321.361L176.9 322.02C177.002 322.898 177.189 323.763 177.458 324.605C177.59 325.028 177.745 325.442 177.922 325.848C178.097 326.266 178.313 326.665 178.568 327.039C178.823 327.426 179.125 327.78 179.469 328.091C179.831 328.417 180.258 328.666 180.721 328.82C181.211 328.981 181.737 328.995 182.236 328.863C182.729 328.731 183.181 328.48 183.553 328.131C183.914 327.795 184.211 327.396 184.429 326.954C184.642 326.519 184.794 326.057 184.879 325.58C185.015 324.686 185.058 323.781 185.005 322.878C184.978 322.014 184.96 321.149 184.924 320.284C184.855 318.555 184.742 316.828 184.598 315.106C184.332 312.037 183.922 308.977 183.366 305.944L183.58 305.638C184.56 304.23 185.573 302.834 186.534 301.382C187.052 300.596 187.554 299.806 188.034 298.973C188.372 300.045 188.846 301.07 189.446 302.022C189.729 302.454 190.049 302.861 190.403 303.237C190.779 303.627 191.201 303.97 191.659 304.26C192.115 304.549 192.605 304.781 193.118 304.951C193.641 305.132 194.188 305.237 194.741 305.264C195.323 305.296 195.905 305.229 196.464 305.066C197.044 304.886 197.583 304.597 198.053 304.212C198.074 304.194 198.092 304.174 198.114 304.156C198.153 304.194 198.191 304.233 198.231 304.269C198.676 304.668 199.153 305.029 199.657 305.349C200.68 306.013 201.83 306.458 203.034 306.655C203.658 306.751 204.292 306.761 204.919 306.685C205.557 306.603 206.179 306.424 206.763 306.153C207.724 305.715 208.546 305.022 209.14 304.149C209.78 304.728 210.471 305.247 211.205 305.701C212.54 306.525 214.008 307.111 215.544 307.432L216.697 307.612L217.854 307.682L219.009 307.633L220.148 307.468L220.103 307.23ZM177.818 285.65L178.582 285.695C178.601 286.446 178.624 287.196 178.649 287.947C178.57 287.722 178.494 287.497 178.424 287.271L177.818 285.65ZM182.758 315.295C183.002 316.988 183.209 318.686 183.4 320.388C183.497 321.237 183.576 322.09 183.666 322.943C183.773 323.755 183.797 324.576 183.738 325.393C183.699 325.77 183.607 326.14 183.465 326.492C183.324 326.832 183.121 327.144 182.869 327.413C182.626 327.671 182.324 327.866 181.988 327.98C181.652 328.081 181.293 328.081 180.957 327.98C180.264 327.793 179.64 327.235 179.169 326.587C178.93 326.256 178.727 325.902 178.564 325.528C178.39 325.15 178.24 324.761 178.113 324.364C177.85 323.569 177.671 322.749 177.577 321.917L177.53 321.289L177.51 320.976V320.03L177.546 319.399C177.546 318.981 177.629 318.562 177.672 318.143C177.701 317.936 177.746 317.729 177.782 317.522C177.818 317.314 177.852 317.105 177.906 316.9C178.007 316.49 178.095 316.078 178.221 315.675C178.282 315.473 178.336 315.268 178.402 315.067L178.604 314.466C179.363 312.298 180.475 310.292 181.725 308.351C182.091 310.67 182.436 312.985 182.758 315.295Z" fill="#A6A6A6"/>
<defs>
<linearGradient id="paint0_linear_115_4417" x1="360.695" y1="198.113" x2="365.433" y2="198.113" gradientUnits="userSpaceOnUse">
<stop/>
<stop offset="0.2" stop-color="#020202"/>
<stop offset="1"/>
</linearGradient>
<linearGradient id="paint1_linear_115_4417" x1="128.14" y1="193.956" x2="132.735" y2="193.956" gradientUnits="userSpaceOnUse">
<stop/>
<stop offset="0.8" stop-color="#020202"/>
<stop offset="1"/>
</linearGradient>
<linearGradient id="paint2_linear_115_4417" x1="246.715" y1="39.994" x2="246.715" y2="36.5513" gradientUnits="userSpaceOnUse">
<stop/>
<stop offset="0.2" stop-color="#020202"/>
<stop offset="1"/>
</linearGradient>
<linearGradient id="paint3_linear_115_4417" x1="244.76" y1="355.087" x2="244.569" y2="352.599" gradientUnits="userSpaceOnUse">
<stop/>
<stop offset="0.8" stop-color="#020202"/>
<stop offset="1"/>
</linearGradient>
<linearGradient id="paint4_linear_115_4417" x1="247.339" y1="348.497" x2="247.339" y2="344.921" gradientUnits="userSpaceOnUse">
<stop/>
<stop offset="0.8" stop-color="#020202"/>
<stop offset="1"/>
</linearGradient>
</defs>
</svg>
