<svg width="96" height="225" viewBox="0 0 96 225" fill="none" xmlns="http://www.w3.org/2000/svg">
<g id="Vector" style="mix-blend-mode:soft-light">
<path fill-rule="evenodd" clip-rule="evenodd" d="M7.04732 225C7.10067 223.93 7.52865 222.913 8.25652 222.126C8.98438 221.339 9.96588 220.833 11.0296 220.695C14.6683 220.368 15.7146 218.372 14.6683 217.373C14.2881 216.918 14.0048 216.39 13.8356 215.821C13.6665 215.253 13.615 214.656 13.6844 214.067C13.6844 213.849 13.6844 213.583 13.6844 213.256C14.0148 211.72 13.7527 210.116 12.9504 208.764C11.623 207.111 12.6225 201.138 13.6219 199.812C14.1108 199.336 14.6689 198.936 15.2773 198.627C17.4637 197.348 20.8369 195.351 20.587 191.187C20.4933 189.627 20.3371 188.068 20.1653 186.617C19.7437 182.718 19.3845 179.287 20.587 177.603C22.5387 174.193 23.24 170.212 22.5703 166.342C21.9144 162.022 20.587 150.746 20.587 149.186C20.587 148.983 20.587 148.656 20.587 148.266C20.587 145.38 20.7432 138.206 19.5719 137.91C18.7855 137.819 17.9896 137.959 17.2821 138.314C16.5746 138.668 15.9863 139.222 15.5897 139.906C14.9338 141.232 12.6069 142.558 11.9353 141.887C11.6856 139.721 11.6856 137.534 11.9353 135.368C12.1696 131.266 12.4351 126.571 11.9353 125.651C11.5833 125.04 11.0558 124.548 10.4211 124.24C9.78635 123.931 9.07353 123.82 8.37474 123.92C7.04732 123.92 2.39355 120.598 2.39355 116.293C2.39355 114.734 2.5341 113.361 2.64341 112.098C2.99769 110.076 2.91247 108.001 2.39355 106.015C0.546555 101.158 -0.246566 95.964 0.0666591 90.7775C0.144743 90.0913 0.222826 89.4051 0.285293 88.7032C0.878727 82.9637 1.50339 76.9279 2.39355 74.8692C2.79161 74.0558 3.26753 73.2828 3.81467 72.561C5.32418 70.8144 6.22322 68.6245 6.3758 66.3224C6.46203 64.3104 6.78705 62.3157 7.34404 60.3802C7.73445 58.8205 8.03117 57.6976 7.70322 57.3857C7.04732 56.715 3.72097 52.4104 5.7199 49.0884C7.84687 46.0749 10.2919 43.2984 13.0129 40.8067C14.7932 38.9352 18.7286 35.2388 20.3215 35.504C22.3048 35.8315 26.2871 36.1746 26.2871 35.504C26.2871 34.8333 27.9425 33.5232 29.6134 32.8526C30.9409 32.3223 33.9236 31.0902 35.2511 30.5287C35.7164 29.7851 35.9632 28.9258 35.9632 28.0489C35.9632 27.172 35.7164 26.3127 35.2511 25.5691C34.5505 24.5387 33.9242 23.4598 33.3771 22.3406C32.7524 21.1553 32.2995 20.2663 31.9247 20.2663C31.2688 20.2663 30.5973 18.27 30.9409 17.2718C31.491 14.5421 31.8201 11.7726 31.9247 8.9901C31.9247 7.00936 37.578 0.380902 40.8887 0.0377816C44.1994 -0.305339 51.508 1.7066 51.8204 5.34055C51.9922 7.16533 52.1639 8.66258 52.2889 9.78552C52.4138 10.9085 52.4919 11.6415 52.4919 11.969C52.514 12.2996 52.561 12.628 52.6324 12.9516C52.9046 13.9256 52.9685 14.9458 52.8198 15.9461C52.5689 16.8066 52.4582 17.7018 52.4919 18.5975C51.8148 21.2523 50.813 23.8138 49.5091 26.2241C48.7366 29.4822 48.4005 32.8282 48.5096 36.1746C48.8376 38.1553 49.8371 39.1535 50.165 39.1535C50.493 39.1535 50.5867 39.4654 50.9771 39.8709C51.6581 40.697 52.5177 41.3583 53.4914 41.8049C54.8188 42.1324 61.4559 44.1288 62.4397 48.7609C62.7868 50.4183 63.3103 52.0339 64.0014 53.5802C64.5467 54.5252 64.7968 55.6114 64.7198 56.6994C64.6417 57.1673 64.548 57.5572 64.4543 57.916C64.0322 59.2638 64.1268 60.7202 64.7198 62.0022C65.7192 64.6536 65.7192 76.2573 65.7192 77.2555C65.7192 78.2536 69.7015 82.2151 70.0294 82.5426C70.3574 82.8702 70.701 82.5426 71.0289 80.5619C71.2319 79.3454 71.4349 76.772 71.638 74.1986C71.7629 72.6389 71.8878 70.9077 72.0284 69.6288C72.1221 68.6619 72.2782 67.5545 72.4188 66.5096C72.7936 63.8426 73.1528 61.1912 72.6843 60.7233C72.23 60.0427 71.9351 59.2687 71.8215 58.4586C71.708 57.6486 71.7787 56.8234 72.0284 56.0444C72.5905 54.6831 72.8155 53.2065 72.6843 51.7398V47.7627C72.6516 46.6318 72.4299 45.5142 72.0284 44.4563L76.4635 32.1195L80.7737 44.3783C80.4156 44.4603 80.0806 44.6221 79.7939 44.8517C79.5073 45.0813 79.2763 45.3726 79.1184 45.704C78.9582 46.7376 78.9582 47.7897 79.1184 48.8233C79.1184 49.3691 79.1184 49.8838 79.1184 50.3049C79.1511 50.8296 79.2242 51.351 79.337 51.8646C79.6493 53.6114 80.0866 56.0288 79.1184 57.2297C77.7909 58.8829 77.463 59.8811 77.7909 60.5361C78.1189 61.1912 77.0101 79.9848 76.4635 89.3739C77.3931 90.1091 78.1232 91.0654 78.587 92.1552C79.0508 93.2451 79.2335 94.4338 79.1184 95.6124C78.4468 99.262 77.463 101.586 76.4635 101.586C75.6125 101.705 74.8091 102.05 74.1366 102.584C74.3553 107.559 74.6676 118.18 74.1366 121.144C74.0429 121.69 73.9336 122.251 73.8243 122.828C73.1335 125.635 72.7926 128.516 72.8092 131.406C73.3105 135.926 73.3105 140.487 72.8092 145.006C72.0256 149.384 71.5818 153.817 71.4818 158.263C71.4605 159.381 71.3614 160.496 71.1851 161.601C70.6989 163.667 70.8017 165.828 71.4818 167.839C72.8092 170.818 72.8092 175.466 72.8092 177.447C72.8092 178.367 72.5281 181.081 72.2158 183.982C71.8722 187.335 71.4818 190.938 71.4818 192.372C71.4818 195.008 77.1194 199.001 80.4458 201.309C81.3951 201.942 82.3984 202.49 83.4442 202.947C85.4275 203.851 86.9579 204.506 87.4108 207.283C87.6036 208.135 87.9839 208.934 88.5241 209.622C89.0643 210.31 89.7509 210.869 90.5342 211.26C91.6742 212.024 92.6736 212.679 92.6736 213.911C92.6473 214.812 92.4949 215.704 92.2208 216.562C91.8928 217.701 91.6586 218.481 92.6736 218.886C94.329 219.541 96 221.194 96 222.52V224.844L7.04732 225ZM17.6667 67.2426C17.5574 69.2233 17.6667 73.4811 18.6505 74.1986C20.2161 75.6357 21.3651 77.4675 21.9769 79.5013C21.9769 79.8757 21.6489 80.25 21.2741 80.6867C20.8627 81.0107 20.5539 81.4467 20.3849 81.942C20.2159 82.4373 20.1939 82.9709 20.3215 83.4784C20.619 84.3004 20.7133 85.182 20.5963 86.0482C20.4794 86.9145 20.1548 87.7397 19.65 88.4537C19.0563 89.4042 18.3425 90.2744 17.5261 91.0427C15.9645 92.6023 14.2154 94.5363 14.0124 96.4078C13.75 98.1166 13.369 99.805 12.8723 101.461C12.4522 102.728 12.1644 104.034 12.0134 105.36C12.0134 107.013 11.0296 108.012 10.3581 106.686C9.59895 104.209 9.15302 101.647 9.03064 99.0592C9.03064 98.5601 9.21804 96.5638 9.45229 94.0684C9.84271 89.9353 10.3581 84.4298 10.3581 82.1527C10.3581 78.5188 13.0129 71.8903 14.6683 70.2215L17.6667 67.2426Z" fill="black" fill-opacity="0.35"/>
</g>
</svg>
