<svg width="73" height="143" viewBox="0 0 73 143" fill="none" xmlns="http://www.w3.org/2000/svg">
<g id="Vector" style="mix-blend-mode:soft-light">
<path d="M72.9823 8.60627C72.8704 10.4163 72.7585 13.3576 72.3108 14.602C71.9751 15.7332 70.5202 17.8826 69.9606 18.1089C69.4011 18.3351 68.17 19.9189 68.0581 20.4845C67.9462 21.0501 62.6862 28.2902 62.5743 28.2902C62.4624 28.2902 60.3361 30.779 59.8884 31.2315C59.3288 31.7971 57.3144 32.9284 56.7548 33.2677C56.1953 33.6071 55.0761 34.9646 54.4046 35.4171C53.7332 35.9828 50.7115 39.6028 49.4804 40.5078C48.5851 41.1866 47.6898 41.7522 47.466 41.9785C47.6898 44.1278 48.1375 48.766 47.8017 50.3498C47.466 52.3861 46.9064 54.0829 46.9064 54.3092C46.9064 54.5354 46.3468 60.3049 46.5707 61.4361C46.6826 62.5674 46.5707 66.5268 46.3468 66.9793C46.123 67.4318 46.2349 69.0156 46.3468 69.6943C46.4587 73.3144 46.5707 80.7807 46.3468 81.4594C46.123 82.0251 46.123 84.0613 46.123 84.9664V92.4327C46.123 93.1114 45.8992 93.5639 46.123 95.0346C46.3469 96.1658 46.2349 99.4465 46.123 101.03C46.2349 103.067 46.5707 107.252 46.7945 108.157C47.0183 109.288 46.9064 118.565 47.1302 120.375C47.3541 121.845 47.6898 125.579 47.8017 127.275C46.2349 127.275 42.9894 127.275 42.7656 127.841C42.5418 128.52 42.9894 129.991 42.7656 130.556C42.5418 131.122 40.7511 134.176 39.0724 135.081C37.7295 135.76 36.9461 136.212 36.7223 136.326C36.6104 136.552 36.4984 137.231 37.058 137.57C37.8414 138.136 37.8414 138.475 38.9606 138.475C40.0797 138.475 41.6465 138.701 42.4299 139.606C43.2132 140.511 43.2132 141.077 44.1086 141.416C45.0039 141.756 47.2421 142.434 47.466 142.661C47.9136 142.887 48.2494 143 48.4732 143H8.96766L13.78 141.869C14.0038 138.701 14.2276 132.14 14.0038 131.461C13.7799 130.556 13.4442 130.443 13.3323 129.651C13.2204 128.859 13.8919 127.728 13.5561 127.615C13.3323 127.502 12.9965 125.918 13.3323 125.465C13.5561 124.9 13.8919 120.827 13.5561 120.262C13.3323 119.696 13.2204 115.623 12.9966 114.718C12.8846 113.813 12.7727 112.569 12.7727 111.89C12.7727 111.212 12.9965 107.139 12.7727 106.687C12.5489 106.347 12.7727 104.877 12.9966 104.65C13.2204 104.424 12.9966 103.745 12.9966 103.519C12.9966 103.293 14.6753 102.275 14.5633 101.935C14.4514 101.709 14.6753 101.143 14.3395 101.143C14.0038 101.143 13.2204 98.3152 13.4442 97.4102C13.668 96.5052 14.5633 95.3739 14.5633 94.6952C14.5633 94.0164 14.2276 91.9802 13.78 91.4145C13.4442 90.8489 12.8846 90.3964 13.1085 89.9439C13.3323 89.6045 13.78 89.152 13.78 88.1339C13.78 87.1157 13.668 85.3057 13.5561 84.8532C13.4442 84.5138 13.3323 82.9301 13.5561 81.7988C13.78 80.6676 13.668 79.1969 13.5561 78.9707C13.4442 78.7444 12.8846 76.8213 12.8846 76.1425C12.8846 75.4638 12.2132 73.2012 12.8846 72.1831C13.5561 71.165 14.4514 70.1469 14.5633 69.1287C14.6753 68.1106 15.5706 65.3955 15.7944 64.7168C16.0182 64.038 16.0182 63.6987 16.0182 63.2461V60.418C16.0182 59.3999 16.2421 59.7393 15.7944 58.9474C15.2348 58.1555 14.6752 57.2505 15.011 56.5717C15.3467 55.893 15.3468 55.7798 15.3468 55.3273C15.3468 54.7617 15.6825 54.3092 15.3468 53.6304C15.011 53.0648 14.6753 53.0648 14.5633 53.0648C13.7799 55.4405 12.1013 60.1917 11.9893 60.5311C11.8774 61.0968 11.7655 65.8481 11.2059 66.8662C10.6464 67.8843 9.63914 70.8256 9.52722 71.0518C9.41531 71.165 9.07956 71.7306 8.85573 72.07L8.74385 72.6356C9.52724 72.8619 10.9821 73.4275 10.4226 74.3325C9.86299 75.2375 9.30341 75.5769 9.1915 75.5769C9.07958 75.8031 8.85575 76.3688 9.1915 76.4819C9.52724 76.595 10.3106 78.0657 10.1987 79.5363C10.0868 81.1201 9.86299 83.8351 9.86299 85.1926C9.86299 86.6632 9.86298 90.7358 9.75107 91.1883C9.63915 91.5277 9.4153 91.9802 9.4153 92.2064C9.4153 92.4327 9.63913 93.3377 9.4153 93.7902C9.19148 94.1295 8.18425 94.5821 7.7366 94.1296C7.40086 93.7902 7.28894 93.2245 7.17703 92.9983C7.17703 92.5458 7.06514 91.5277 6.95322 91.4145C6.84131 91.3014 6.39363 90.3964 6.61746 89.0389C6.72937 88.0207 6.61746 87.2289 6.61746 87.0026C6.39363 86.5501 5.83407 85.7582 5.61024 85.7582C5.38642 85.7582 3.93155 87.0026 3.59581 87.0026C3.26007 87.0026 2.81241 87.0026 2.47667 86.3239C2.14093 85.7582 1.24562 84.7401 0.797966 84.2876C0.462224 84.0613 -0.097358 83.6088 0.0145557 82.8169C0.126469 81.9119 1.46943 79.8757 1.69326 79.0838C1.91709 78.2919 2.47667 77.8394 2.47667 77.2738C2.47667 76.7082 2.8124 65.7349 2.8124 65.1693C2.8124 64.6037 2.92433 62.6805 3.14816 61.7755C3.37199 60.8705 3.70772 60.1918 4.15538 59.1736C4.71495 58.1555 6.05791 55.7798 6.39365 54.5354C6.61748 53.2911 7.28897 50.8023 7.62471 50.0104C7.96045 49.2185 7.96043 46.5035 8.40809 45.5985C8.74383 44.6935 9.30342 40.2816 11.5417 39.1503C13.78 38.019 16.6897 37.4534 16.9135 37.4534C17.1374 37.4534 22.0616 34.6253 22.2854 33.7203C22.5092 33.0415 22.3973 32.1365 22.2854 31.7971C21.1662 31.3446 19.0399 30.3265 19.0399 29.9871C19.0399 29.6477 19.7114 28.8558 19.8233 28.1771C19.9352 27.4983 20.0471 27.3852 19.8233 26.5933C19.5995 25.8014 19.1518 21.3895 20.6067 19.2401C21.7258 17.4301 23.8522 16.0726 24.8594 15.6201C25.8666 15.3938 27.993 15.1676 28.4406 15.3938C29.1121 15.6201 31.91 18.222 32.1338 18.7876C32.3576 19.3532 33.3648 20.4845 33.5887 22.5208C33.7006 24.557 33.5887 27.8377 33.9244 28.6296C34.2602 29.1952 34.5959 31.0052 34.8197 31.9102C34.8197 32.1365 34.8197 32.589 34.484 32.589H32.1338C32.1338 32.8152 32.1338 33.2677 32.3576 33.2677C32.6934 33.2677 33.5887 33.494 34.0363 33.3809C34.3721 33.2677 36.9461 32.3627 37.1699 32.3627C37.3938 32.3627 38.6248 31.7971 38.8486 31.5709C39.0725 31.3446 42.318 31.0052 42.8775 31.3446C43.3252 31.5709 43.549 32.2496 43.6609 32.589C45.5634 31.3446 49.3685 28.8558 49.7042 28.7427C50.04 28.6296 50.7115 28.064 50.8234 27.6114C50.9353 27.0458 52.614 24.557 54.9642 23.652C56.8667 22.9733 58.7693 21.1633 59.4408 20.2583C60.8956 19.0139 63.8054 16.6382 64.0292 16.412C64.365 16.1857 64.365 15.2807 64.0292 14.8282C63.6935 14.4888 63.022 12.6788 63.022 11.8869C63.022 11.095 63.022 8.83252 62.7982 7.92752C62.5743 7.02251 62.5744 6.34375 63.022 6.34375C63.5816 6.34375 64.9245 6.90938 65.2603 8.38002C65.3722 9.28503 65.4841 9.51128 65.3722 9.62441C65.4841 9.73753 65.7079 9.85066 65.8199 8.94565C65.9318 7.81439 66.1556 5.55187 66.1556 4.75998C66.1556 3.9681 66.2675 2.38434 66.3794 1.93183C66.4913 1.3662 66.4913 1.02683 67.1628 1.13995C67.7224 1.25308 67.8343 1.47934 67.8343 1.47934C67.8343 0.913705 67.9462 -0.104432 68.6177 0.00869358C69.4011 0.234946 69.7368 0.800576 69.7368 1.13995C69.7368 1.47933 69.7368 1.70559 69.9606 1.47934C70.1845 1.36621 70.5202 0.574322 70.856 1.25308C71.1917 1.93183 71.6393 2.83684 71.5274 3.62872C71.4155 4.19435 71.5274 4.87311 71.5274 5.09937C71.7513 4.87311 72.1989 4.64686 72.4228 4.87312C72.6466 5.09937 73.0942 6.79625 72.9823 8.60627Z" fill="black" fill-opacity="0.35"/>
</g>
</svg>
