<svg width="169" height="122" viewBox="0 0 169 122" fill="none" xmlns="http://www.w3.org/2000/svg">
<g id="Vector" style="mix-blend-mode:soft-light">
<path d="M168.601 25.6974C168.423 25.2577 168.274 24.7131 168.384 24.2767C168.537 23.6697 168.238 23.3957 167.849 23.2087C167.371 22.979 166.931 22.6886 166.465 22.4393C165.219 21.7716 163.815 21.3943 162.745 20.3952C162.557 20.2177 162.319 20.103 162.063 20.0671C161.209 19.9965 160.562 19.5306 159.939 19.0237C158.522 17.8852 156.968 16.9648 155.457 15.9805C154.687 15.4801 153.95 14.924 153.592 14.043C153.429 13.6526 153.266 13.3278 152.911 13.085C152.663 12.9163 152.457 12.6915 152.311 12.4287C151.944 11.7561 151.386 11.5691 150.664 11.6085C149.942 11.6478 149.932 11.6249 150.113 10.8752C150.164 10.6247 150.176 10.3681 150.151 10.1139C150.136 9.8531 150.032 9.64639 149.705 9.74811C149.174 9.91216 149.264 9.61522 149.421 9.33797C149.731 8.79332 149.71 8.1896 149.767 7.60393C149.793 7.34472 149.751 7.07075 149.475 6.94771C149.148 6.80335 148.992 7.08716 148.873 7.28566C148.311 8.21749 147.496 8.89503 146.669 9.56273C146.429 9.73949 146.219 9.95321 146.046 10.196C145.491 11.0441 145.452 10.967 144.489 10.8423C143.711 10.7423 142.907 10.529 142.115 10.7111C140.875 10.9949 139.644 11.3247 138.494 11.8972C138.03 12.1285 137.513 12.327 137.023 12.1351C135.976 11.7299 134.971 12.0137 133.956 12.2204C133.644 12.2844 133.289 12.3844 133.283 12.7864C133.276 13.1883 133.639 13.1949 133.925 13.2638C134.043 13.2775 134.154 13.3283 134.242 13.409C134.33 13.4897 134.391 13.5961 134.415 13.7133C134.459 14.0086 134.203 14.1004 133.989 14.1907C132.963 14.6205 131.864 14.7403 130.788 14.9831C129.574 15.2603 128.291 15.2111 127.124 15.7475C126.917 15.8427 126.709 15.9231 126.738 16.179C126.773 16.5071 126.575 16.6892 126.412 16.9123C126.287 17.0764 126.131 17.2683 126.263 17.4931C126.395 17.7178 126.654 17.7375 126.886 17.6571C127.263 17.5292 127.492 17.6243 127.608 18.0246C127.684 18.2037 127.783 18.3724 127.902 18.5266C127.584 18.6635 127.231 18.694 126.895 18.6135C126.078 18.3954 125.248 18.2362 124.39 18.4052C124.175 18.4462 123.9 18.4347 123.854 18.6578C123.668 19.6061 122.804 19.7143 122.152 20.0096C121.5 20.3049 120.809 20.346 120.372 21.1383C119.962 21.8799 119.898 22.1374 120.748 22.4114C120.898 22.4606 121.119 22.4262 121.142 22.6575C121.161 22.8527 121.001 22.961 120.866 23.0594C120.398 23.3936 119.899 23.6805 119.375 23.9158C118.63 24.2619 118.331 24.0798 118.284 23.2431C118.273 23.0299 118.274 22.8166 118.284 22.6033C118.323 21.3303 118.22 20.1015 117.488 18.9942C117.085 18.3822 117.189 17.7457 117.638 17.1568C117.921 16.786 118.156 16.3873 118.173 15.887C118.217 14.5237 119.122 13.8117 120.46 14.0627C120.668 14.1076 120.879 14.1307 121.091 14.1316C121.755 14.1185 122.072 13.8429 122.126 13.1785C122.132 13.0299 122.168 12.8842 122.233 12.7507C122.298 12.6171 122.39 12.4985 122.503 12.4025C122.671 12.2701 122.798 12.0934 122.871 11.8923C123.096 11.2361 123.328 10.5799 123.56 9.92364C123.65 9.69467 123.692 9.44958 123.683 9.20371C123.674 8.95785 123.614 8.71649 123.508 8.49474C123.333 8.13874 123.376 7.82048 123.443 7.44972C123.546 6.87061 124.041 6.45391 124.039 5.84856C124.039 5.08079 124.078 4.30974 124.016 3.55181C123.93 2.48218 123.144 1.01882 121.827 1.03851C121.613 1.01436 121.413 0.922402 121.255 0.776026C119.813 -0.273916 118.15 -0.0852547 116.661 0.334722C115.009 0.797353 113.72 1.99822 112.779 3.48947C112.578 3.81757 112.388 3.93569 112.125 3.54853C111.921 3.2498 111.699 2.96331 111.462 2.69053C111.253 2.43089 110.952 2.26318 110.622 2.22305C110.292 2.18292 109.96 2.27352 109.695 2.47562C109.411 2.69488 109.139 2.9287 108.878 3.17613C107.793 4.16045 107.094 5.49256 105.878 6.36204C105.303 6.77382 104.734 6.95428 104.102 6.69015C103.019 6.23244 102.107 6.55562 101.161 7.13473C99.7817 7.98453 98.78 9.40852 97.0953 9.79896C96.579 9.91872 96.1263 10.2189 95.6639 10.4863C94.8926 10.9293 94.1246 11.3607 93.1671 11.3197C92.6475 11.2984 92.1295 11.5002 91.6311 11.702C90.1343 12.3073 88.6457 12.9242 87.2927 13.8199C86.2682 14.4974 85.1129 14.9683 84.224 15.8624C82.2733 17.8603 80.6655 20.1685 79.4656 22.6936C78.8611 23.9387 78.1453 25.1445 77.0963 26.0665C76.1976 26.8572 75.8364 27.6923 76.1976 28.821C76.361 29.3426 76.3005 29.469 75.74 29.3525C72.7301 28.7225 69.7169 28.1084 66.7005 27.5102C62.0566 26.5915 57.4404 25.5415 52.8111 24.526C51.7327 24.2882 50.6477 24.0815 49.561 23.8829C49.2587 23.8288 48.9074 23.7681 48.744 24.17C48.4254 24.9755 48.646 25.3775 49.499 25.5268C50.8536 25.7614 52.2066 26.032 53.5448 26.3208C55.272 26.6932 56.9943 27.141 58.7264 27.5085C59.6562 27.7103 60.5663 27.9826 61.4912 28.1861C63.2249 28.565 64.988 28.8144 66.7316 29.1622C67.8117 29.3787 68.8656 29.7265 69.9473 29.93C73.869 30.6682 77.7483 31.5836 81.6455 32.4301C81.8236 32.4695 82.0752 32.4465 82.1079 32.6861C82.1455 32.9535 81.884 33.0142 81.7027 33.111C80.5801 33.6687 79.4477 34.2101 78.3283 34.7712C77.4737 35.1994 76.6387 35.6866 75.7139 35.9195C74.9967 36.1192 74.3217 36.4483 73.722 36.8907C73.3135 37.1762 73.0014 37.5732 73.0814 38.1277C73.1003 38.2331 73.0809 38.3418 73.0266 38.4339C72.9723 38.5261 72.8868 38.5956 72.7857 38.6297C72.5406 38.7527 72.2775 38.843 72.0291 38.9578C71.3886 39.2613 71.3249 39.4204 71.6827 40.0324C72.8576 42.0338 74.3315 43.7334 76.4753 44.7473C76.7057 44.8572 76.9852 44.9376 77.129 45.2706L76.2678 45.4166C74.5521 45.6971 72.8151 45.8612 71.132 46.3172C69.699 46.7044 68.2708 47.1113 67.0469 48.0201C66.7895 48.2129 66.4843 48.331 66.1645 48.3614C64.8573 48.4827 63.7135 48.9405 62.7837 49.9051C62.6709 50.0324 62.5329 50.1346 62.3785 50.2053C61.7249 50.4694 61.5615 51.0617 61.6497 51.6227C61.7183 52.0854 61.5271 52.2051 61.2314 52.4036C60.3179 53.0172 59.3179 53.488 58.4894 54.2443C57.8678 54.8122 57.0585 55.1284 56.2181 55.1318C55.1446 55.1417 54.8243 55.2746 54.7736 56.3426C54.7132 57.5844 54.12 58.3424 53.1004 58.8837C52.9143 58.9866 52.7386 59.1075 52.5759 59.2446C51.6608 59.9911 50.615 60.2798 49.4418 60.2913C47.128 60.3176 44.788 60.3569 42.5347 60.8573C38.613 61.7284 34.9968 63.3083 31.9853 66.0939C29.4672 68.4251 26.5537 68.7286 23.3804 67.718C22.4343 67.4162 21.5585 66.7567 20.4686 67.0109C20.3627 67.0119 20.2606 66.9713 20.1842 66.8977C19.4228 66.2415 18.529 65.7198 18.0861 64.7207C17.6363 63.7461 16.8933 62.9377 15.9619 62.4092C15.7429 62.2796 15.4945 62.1681 15.238 62.3092C14.9504 62.4634 15.0305 62.7488 15.037 62.9949C15.0572 63.3153 15.1353 63.6294 15.2674 63.9218C15.3524 64.1334 15.5272 64.3598 15.3458 64.578C15.1645 64.7962 14.9488 64.6026 14.7494 64.578C14.1889 64.496 13.9324 64.7421 13.9994 65.2769C14.1089 66.0479 14.0795 66.0545 13.3082 66.1874C12.8741 66.2758 12.4228 66.206 12.0353 65.9905C11.1709 65.5361 10.3538 65.0735 9.53683 64.5518C9.21002 64.3418 8.86033 63.9727 8.44528 64.2614C8.05802 64.5288 8.36031 64.9176 8.41097 65.2621C8.4796 65.7067 8.15116 66.0151 7.77533 65.8068C7.09066 65.4262 6.30469 65.1982 5.75402 64.6092C5.33244 64.1613 4.8651 63.907 4.23763 63.9842C3.96311 64.0186 3.74741 63.8628 3.5595 63.6872C3.37158 63.5117 3.08399 63.1951 2.79804 63.4739C2.51208 63.7528 2.80621 64.0367 2.97124 64.2565C3.25146 64.6315 3.55954 64.9847 3.89284 65.313C4.01803 65.4323 4.09594 65.5931 4.11216 65.7656C4.12838 65.9381 4.08182 66.1107 3.98108 66.2514C3.78336 66.5795 3.54479 66.2366 3.3389 66.1546C2.98759 66.0135 2.60849 65.9101 2.30619 66.1546C1.90585 66.4827 1.54146 66.4318 1.12805 66.2382C0.952479 66.161 0.768063 66.1059 0.579007 66.0742C0.486589 66.0448 0.387389 66.0448 0.294967 66.0742C0.202544 66.1035 0.121409 66.1608 0.0626503 66.2382C-0.0729752 66.4351 0.0365055 66.6139 0.155791 66.7632C0.569203 67.2751 0.959739 67.8132 1.49897 68.2069C2.88464 69.2207 4.27684 70.2231 5.65761 71.2452C7.91585 72.9185 10.2117 74.5098 12.8899 75.4679C13.9188 75.8057 14.9663 76.0834 16.0272 76.2996C18.6107 76.8968 21.199 77.5251 23.8821 77.3447C25.6174 77.2265 27.3528 77.0412 29.0228 76.5244C31.5392 75.755 34.0278 74.897 36.5639 74.1817C38.7427 73.5823 40.7692 72.5236 42.5085 71.0762C44.0037 69.8245 45.6132 68.7614 47.4776 68.1544C48.3061 67.887 49.1035 67.5392 49.9042 67.1963C50.8775 66.768 51.896 66.4515 52.9402 66.253C53.4631 66.1595 53.5612 66.3318 53.3863 66.7927C53.3161 66.9933 53.2614 67.1989 53.2229 67.4079C52.9876 68.5301 53.2523 68.868 54.3749 68.8844C54.5874 68.8844 54.7998 68.891 55.0122 68.9041C55.5302 68.9254 55.7884 69.201 55.7688 69.7244C55.7573 70 55.6969 70.2723 55.6822 70.5446C55.6642 70.9023 55.5678 71.3042 55.875 71.5733C56.2165 71.8702 56.3472 72.2656 56.5286 72.6511C57.1299 73.9635 57.527 75.4023 58.5368 76.4801C59.7885 77.8286 61.3539 78.8129 62.8752 79.7973C63.9749 80.5125 65.274 80.8751 66.5976 81.0309C67.63 81.1599 68.6553 81.3411 69.6696 81.574C71.2402 81.9152 72.8331 82.1438 74.4361 82.2581C74.3053 82.5763 74.0831 82.6387 73.923 82.7683C72.9524 83.559 71.8837 84.2726 71.833 85.7212C71.8216 86.0395 71.5618 86.2298 71.3199 86.4185C70.2447 87.2519 69.0682 87.9327 67.9489 88.6988C66.7789 89.501 65.3181 89.8915 64.4063 91.0366C63.8736 91.7075 63.1726 92.0209 62.4765 92.4113C61.4642 92.9534 60.4853 93.556 59.545 94.2159C58.9061 94.6818 58.1675 94.9738 57.5629 95.4841C56.9584 95.9943 56.9289 96.4208 57.4339 97.0147C57.9715 97.6446 58.6855 98.017 59.4307 98.3386C59.581 98.4026 59.8032 98.4091 59.8212 98.6125C59.8392 98.816 59.63 98.875 59.4944 98.9767C58.3636 99.8446 57.027 100.417 55.9763 101.392C54.5628 102.704 52.6412 103.35 51.4288 104.922C51.3294 105.034 51.2074 105.124 51.0709 105.185C50.0153 105.724 48.9581 106.266 47.896 106.792C46.3763 107.547 44.806 108.213 43.386 109.145C42.1621 109.95 40.8598 110.621 39.8189 111.738C38.8287 112.808 38.7028 112.692 39.479 113.917C39.9202 114.614 39.8843 114.752 39.1751 115.146C37.9871 115.802 36.8024 116.473 35.6112 117.124C35.3547 117.265 35.1406 117.436 35.0736 117.72C35.0204 117.928 34.9214 118.121 34.784 118.285C34.6465 118.449 34.4741 118.58 34.2795 118.668C33.3759 119.141 32.8726 119.751 33.2174 120.871C33.4183 121.528 33.7615 121.967 34.4658 121.951C39.3499 121.839 44.239 122.162 49.1215 121.754C50.3585 121.651 51.6085 121.715 52.852 121.706C53.3765 121.706 53.906 121.838 54.406 121.818C54.9665 121.795 55.5416 121.687 56.1005 121.736C58.1316 121.915 60.1725 121.885 62.2036 121.92C68.3198 122.02 74.4377 121.98 80.5555 121.985C87.5443 121.985 94.5315 121.985 101.52 122C102.158 122 102.491 121.787 102.664 121.17C102.837 120.553 103.197 120.059 103.466 119.505C103.984 118.442 104.885 117.643 105.408 116.588C105.898 115.612 106.519 114.723 107.132 113.83C107.744 112.938 107.785 111.473 107.132 110.561C106.478 109.648 105.865 108.746 105.171 107.886C104.383 106.902 103.898 105.65 102.659 105.075C101.586 104.582 100.881 103.411 99.5415 103.377C99.1722 103.367 99.1902 103.017 99.2474 102.72C99.4222 101.856 100.073 101.356 100.692 100.837C102.043 99.7051 103.406 98.5863 104.762 97.4576C105.061 97.2083 105.375 96.9277 105.264 96.4946C105.131 95.9318 105.137 95.3447 105.284 94.7852C105.543 93.6959 105.401 92.5196 106.14 91.5189C106.462 91.0522 106.869 90.6504 107.339 90.3344C108.045 89.88 108.086 89.5831 107.534 88.9728C107.137 88.5256 106.66 88.1571 106.128 87.8867C105.502 87.5734 104.883 87.2469 104.264 86.9221C103.965 86.758 103.947 86.6104 104.264 86.448C104.833 86.1625 105.39 85.8558 105.962 85.5769C106.797 85.1717 107.122 84.4876 106.712 83.6673C106.434 83.1095 106.676 82.9274 107.107 82.7896C107.733 82.5911 108.372 82.4303 109.004 82.2449C110.432 81.8217 111.248 80.1582 110.704 78.7834C110.642 78.6292 110.506 78.4783 110.596 78.3044C111.076 77.3742 110.936 76.2783 111.441 75.3334C111.692 74.8625 111.914 74.5804 112.436 74.5131C113.639 74.3565 114.807 73.9948 115.888 73.4435C116.094 73.3401 116.379 73.2286 116.451 73.0481C116.737 72.3738 117.354 72.2574 117.931 72.0786C118.438 71.9145 118.99 71.8817 119.465 71.6668C120.609 71.1451 121.691 71.3813 122.781 71.8308C125.224 72.8151 127.675 73.7995 130.297 74.1817C132.11 74.4393 133.883 74.8576 135.655 75.2924C136.399 75.4809 137.095 75.824 137.698 76.2996C137.887 76.4354 138.041 76.6154 138.146 76.824C138.251 77.0326 138.303 77.2636 138.299 77.4972C138.335 78.7391 137.776 79.8104 137.397 80.9424C137.386 80.9949 137.362 81.0441 137.329 81.0863C137.296 81.1285 137.253 81.1625 137.205 81.1859C137.157 81.2093 137.104 81.2213 137.05 81.2212C136.997 81.2211 136.944 81.2088 136.896 81.1852C135.883 80.857 135.85 80.8833 135.425 81.8414C134.771 83.2818 134.365 84.8075 133.827 86.2872C133.642 86.7974 133.337 87.3585 133.699 87.9458C133.799 88.1098 133.662 88.2198 133.536 88.3116C133.414 88.3959 133.275 88.4521 133.128 88.4762C132.982 88.5003 132.832 88.4918 132.69 88.4511C132.11 88.3379 131.507 88.1755 130.966 88.5659C130.769 88.7153 130.536 88.8081 130.291 88.8341C130.046 88.8601 129.798 88.8184 129.575 88.7136C128.964 88.4494 128.725 88.7283 128.549 89.2566C128.071 90.6693 127.704 92.1174 127.451 93.5876C127.322 94.2149 127.267 94.8553 127.288 95.4955C127.32 95.9598 127.521 96.0976 127.959 95.9352C128.938 95.5818 129.894 95.1681 130.822 94.6966C131.291 94.4505 131.779 94.0912 132.271 94.0666C133.427 94.0125 133.905 93.2464 134.407 92.4064C134.909 91.5665 135.654 90.8774 136.582 90.6215C137.937 90.2491 138.641 89.4436 138.809 88.0869C138.848 87.7588 138.945 87.4651 139.283 87.3109C139.719 87.0849 140.104 86.7704 140.412 86.3873C141.597 85.0568 143.169 84.3087 144.764 83.6968C145.876 83.2703 146.44 82.6091 146.427 81.5034C146.401 79.2493 146.917 77.1101 147.631 75.002C148.406 72.7052 148.93 70.3101 150.444 68.3234C150.747 67.9264 150.77 67.4244 150.712 66.9141C150.623 66.0414 150.162 65.3081 149.894 64.5026C149.416 63.0605 148.751 62.5766 147.226 62.5635C146.015 62.5536 144.806 62.6553 143.597 62.5044C141.362 62.2255 139.195 61.5693 136.963 61.2773C136.556 61.2248 136.446 60.9836 136.652 60.649C137.45 59.3513 137.644 57.7961 138.425 56.4935C138.589 56.2195 138.535 55.9226 138.502 55.6207C138.441 55.0777 138.275 54.533 138.531 53.99C139.064 52.8873 139.211 51.6367 138.948 50.4399C138.857 50.0117 138.896 49.6196 139.389 49.367C139.843 49.134 140.012 48.6583 139.927 48.1612C139.846 47.7015 139.875 47.229 140.013 46.7832C140.086 46.5366 140.1 46.2767 140.056 46.0236C139.945 45.3182 140.076 45.1771 140.796 45.328C142.92 45.7726 145.03 46.2418 147.148 46.6962C147.601 46.7891 148.035 46.9554 148.435 47.1884C149.354 47.7232 150.274 48.2514 151.171 48.8289C151.466 49.0062 151.809 49.0849 152.151 49.0537C152.765 49.0208 153.388 48.9011 153.991 48.9618C156.2 49.1882 158.403 48.8158 160.609 48.9503C160.762 48.9601 160.999 49.0241 161.052 48.8174C161.104 48.6107 160.874 48.5648 160.725 48.4893C158.317 47.3169 155.911 46.1434 153.506 44.9687C153.023 44.7481 152.496 44.643 151.966 44.6619C150.332 44.6537 148.682 45.205 147.037 44.6619C146.649 44.5522 146.255 44.4624 145.858 44.3929C144.51 44.091 143.162 43.799 141.819 43.484C141.598 43.4315 141.211 43.4135 141.339 43.0427C141.549 42.421 141.229 41.6417 141.907 41.1578C142.027 41.0725 142.007 40.8789 141.955 40.7329C141.724 40.0963 141.878 39.4975 142.058 38.8709C142.548 37.1729 142.971 35.4553 143.438 33.7508C143.553 33.3357 143.602 32.8698 144.141 32.7008C147.3 31.7165 150.436 30.6496 153.548 29.5001C153.888 29.3743 154.257 29.3566 154.607 29.4493C155.632 29.7003 156.707 29.7528 157.656 30.2876C157.811 30.354 157.978 30.3881 158.146 30.3877C159.364 30.491 159.374 30.4861 159.728 31.5984C159.98 32.3891 160.545 32.901 161.302 33.0109C162.176 33.1372 163.047 33.3127 163.946 33.339C164.88 33.3685 165.209 32.5811 165.836 32.2119C166 32.1102 165.861 31.8756 165.779 31.6935C165.302 30.6305 164.344 30.1104 163.411 29.5707C163.151 29.4197 162.921 29.2885 162.799 28.9817C163.039 28.8784 163.261 28.7603 163.452 28.88C164.333 29.4411 165.482 29.2573 166.325 29.966C166.491 30.1081 166.7 30.1883 166.918 30.1931C167.136 30.1979 167.349 30.1269 167.521 29.9923C169.081 28.7438 169.346 27.5348 168.601 25.6974ZM137.541 69.5735C139.133 68.9681 140.744 68.4464 142.466 68.4005C142.959 68.3855 143.441 68.5419 143.832 68.8434C143.996 68.9665 144.12 69.0993 144.082 69.2552C143.894 70.2215 143.723 71.1205 143.54 72.0162C143.494 72.236 143.376 72.4624 143.105 72.3443C141.652 71.7521 140.01 71.7472 138.646 70.8875C138.252 70.6382 137.871 70.3675 137.489 70.1001C137.201 69.9065 137.169 69.7145 137.541 69.5735Z" fill="black" fill-opacity="0.35"/>
</g>
</svg>
